<?xml version="1.0" encoding="utf-8"?>
<!-- Generator: Adobe Illustrator 16.0.0, SVG Export Plug-In . SVG Version: 6.00 Build 0)  -->
<!DOCTYPE svg PUBLIC "-//W3C//DTD SVG 1.1//EN" "http://www.w3.org/Graphics/SVG/1.1/DTD/svg11.dtd">
<svg version="1.1" xmlns="http://www.w3.org/2000/svg" xmlns:xlink="http://www.w3.org/1999/xlink" x="0px" y="0px" width="30px"
	 height="20px" viewBox="0 0 30 20" enable-background="new 0 0 30 20" xml:space="preserve">
<g id="Layer_1" display="none">
	<g display="inline">
		<rect x="2.708" y="2.417" fill="#FFC599" width="24.584" height="15.167"/>
		<path fill="#FF7900" d="M29.292,19.584H0.708V0.417h28.584V19.584z M4.708,15.584h20.584V4.417H4.708V15.584z"/>
	</g>
</g>
<g id="Layer_2">
	<rect x="2.208" y="8" fill="#FF7900" width="25.583" height="4"/>
</g>
<g id="Layer_3" display="none">
	<path display="inline" fill="#423921" d="M15,16.787c-3.929,0-7.125-3.196-7.125-7.125c0-3.929,3.196-7.125,7.125-7.125
		s7.125,3.196,7.125,7.125C22.126,13.591,18.93,16.787,15,16.787z M15,6.537c-1.724,0-3.125,1.402-3.125,3.125
		c0,1.723,1.402,3.125,3.125,3.125c1.723,0,3.125-1.402,3.125-3.125C18.126,7.938,16.724,6.537,15,6.537z"/>
</g>
</svg>
