<?xml version="1.0" encoding="utf-8"?>
<!-- Generator: Adobe Illustrator 16.0.0, SVG Export Plug-In . SVG Version: 6.00 Build 0)  -->
<!DOCTYPE svg PUBLIC "-//W3C//DTD SVG 1.1//EN" "http://www.w3.org/Graphics/SVG/1.1/DTD/svg11.dtd">
<svg version="1.1" id="Layer_2_1_" xmlns="http://www.w3.org/2000/svg" xmlns:xlink="http://www.w3.org/1999/xlink" x="0px" y="0px"
	 width="50px" height="50px" viewBox="0 0 50 50" enable-background="new 0 0 50 50" xml:space="preserve">
<path fill="#464646" d="M25.058,18.036c-0.256-0.008-0.52,0.042-0.798,0.18c-0.38,0.19-0.76,0.38-1.14,0.571
	c-1.603,0.802-3.204,1.604-4.804,2.405c-2.034,1.019-4.065,2.035-6.099,3.053c-1.944,0.973-3.888,1.946-5.832,2.92
	c-1.333,0.668-2.696,1.296-4.007,2.006c-0.249,0.134-0.452,0.512-0.234,0.766c0.062,0.074,0.239,0.121,0.325,0.165
	c0.255,0.126,0.51,0.255,0.766,0.381c0.684,0.341,1.369,0.682,2.053,1.021c1.84,0.916,3.679,1.83,5.519,2.745
	c2.044,1.019,4.086,2.033,6.131,3.052c1.739,0.865,3.479,1.729,5.218,2.596c0.605,0.302,1.213,0.604,1.819,0.905
	c0.568,0.283,1.291,0.457,1.875,0.147c0.232-0.123,0.471-0.239,0.707-0.358c0.652-0.33,1.305-0.661,1.957-0.99
	c1.803-0.913,3.605-1.826,5.408-2.74c2.037-1.03,4.072-2.062,6.107-3.093c1.754-0.889,3.508-1.776,5.258-2.663
	c0.506-0.258,1.014-0.515,1.52-0.771c0.307-0.155,0.967-0.311,1.117-0.65c0.135-0.301-0.303-0.45-0.514-0.559
	c-0.393-0.198-0.785-0.397-1.178-0.596c-1.145-0.578-2.285-1.155-3.428-1.733c-1.439-0.73-2.883-1.461-4.322-2.191
	c-1.525-0.772-3.053-1.544-4.576-2.316c-1.395-0.707-2.787-1.413-4.184-2.12c-1.049-0.532-2.102-1.064-3.15-1.594
	C26.07,18.317,25.58,18.054,25.058,18.036z"/>
<path fill="#5E5E5E" d="M25.058,10.509c-0.256-0.009-0.52,0.042-0.8,0.18c-0.379,0.19-0.759,0.38-1.139,0.571
	c-1.603,0.802-3.204,1.604-4.804,2.405c-2.034,1.019-4.065,2.036-6.099,3.053c-1.944,0.973-3.888,1.946-5.832,2.919
	c-1.333,0.668-2.696,1.295-4.007,2.006c-0.249,0.135-0.452,0.512-0.234,0.766c0.062,0.074,0.239,0.122,0.325,0.166
	c0.255,0.125,0.51,0.254,0.766,0.38c0.684,0.34,1.369,0.681,2.053,1.021c1.84,0.915,3.679,1.83,5.519,2.745
	c2.044,1.018,4.086,2.032,6.131,3.051c1.739,0.864,3.479,1.73,5.218,2.597c0.605,0.301,1.213,0.603,1.819,0.903
	c0.568,0.285,1.291,0.457,1.875,0.149c0.232-0.124,0.471-0.24,0.707-0.359c0.652-0.329,1.305-0.661,1.957-0.99
	c1.803-0.913,3.605-1.825,5.408-2.741c2.037-1.029,4.072-2.061,6.107-3.093c1.754-0.889,3.508-1.775,5.258-2.663
	c0.506-0.257,1.014-0.514,1.52-0.77c0.307-0.156,0.967-0.31,1.117-0.651c0.135-0.301-0.303-0.45-0.514-0.558
	c-0.393-0.199-0.785-0.397-1.178-0.596c-1.145-0.578-2.285-1.157-3.428-1.734c-1.439-0.73-2.883-1.461-4.322-2.191
	c-1.525-0.773-3.053-1.544-4.576-2.317c-1.395-0.706-2.787-1.412-4.184-2.119c-1.049-0.532-2.102-1.063-3.15-1.594
	C26.07,10.791,25.58,10.526,25.058,10.509z"/>
<path fill="#7C7C7C" d="M25.058,3.237c-0.256-0.009-0.52,0.042-0.8,0.181c-0.379,0.19-0.759,0.38-1.139,0.571
	c-1.603,0.802-3.204,1.604-4.804,2.405c-2.034,1.018-4.065,2.036-6.099,3.053c-1.944,0.973-3.888,1.946-5.832,2.919
	c-1.333,0.668-2.696,1.296-4.007,2.006c-0.249,0.135-0.452,0.512-0.234,0.766c0.062,0.074,0.239,0.122,0.325,0.166
	c0.255,0.125,0.51,0.255,0.766,0.381c0.684,0.34,1.369,0.681,2.053,1.021c1.84,0.914,3.679,1.83,5.519,2.745
	c2.044,1.019,4.086,2.033,6.131,3.051c1.739,0.864,3.479,1.73,5.218,2.597c0.605,0.301,1.213,0.603,1.819,0.903
	c0.568,0.284,1.291,0.458,1.875,0.149c0.232-0.125,0.471-0.24,0.707-0.36c0.652-0.328,1.305-0.66,1.957-0.989
	c1.803-0.914,3.605-1.826,5.408-2.741c2.037-1.03,4.072-2.062,6.107-3.094c1.754-0.887,3.508-1.773,5.258-2.662
	c0.506-0.257,1.014-0.514,1.52-0.769c0.307-0.156,0.967-0.31,1.117-0.651c0.135-0.301-0.303-0.451-0.514-0.558
	c-0.393-0.198-0.785-0.397-1.178-0.595c-1.145-0.578-2.285-1.157-3.428-1.734c-1.439-0.731-2.883-1.461-4.322-2.191
	c-1.525-0.773-3.053-1.544-4.576-2.317c-1.395-0.706-2.787-1.413-4.184-2.119c-1.049-0.532-2.102-1.063-3.15-1.595
	C26.07,3.52,25.58,3.255,25.058,3.237z"/>
</svg>
