<?xml version="1.0" encoding="utf-8"?>
<!-- Generator: Adobe Illustrator 16.0.0, SVG Export Plug-In . SVG Version: 6.00 Build 0)  -->
<!DOCTYPE svg PUBLIC "-//W3C//DTD SVG 1.1//EN" "http://www.w3.org/Graphics/SVG/1.1/DTD/svg11.dtd">
<svg version="1.1" id="Layer_1" xmlns="http://www.w3.org/2000/svg" xmlns:xlink="http://www.w3.org/1999/xlink" x="0px" y="0px"
	 width="300px" height="400px" viewBox="0 0 300 400" enable-background="new 0 0 300 400" xml:space="preserve">
<g id="Layer_2">
	<path fill="#EAEAEA" d="M287.616,374.346c0,5.522-4.478,10-10,10H22.383c-5.523,0-10-4.478-10-10V25.655c0-5.523,4.477-10,10-10
		h255.233c5.522,0,10,4.477,10,10V374.346z"/>
</g>
<g id="Layer_1_1_">
	<g>
		<path d="M54.242,36.583v6.72h-1.56v-6.72H54.242z M56.978,36.583v6.72h-1.56v-6.72H56.978z"/>
		<path d="M62.45,41c-0.088-0.184-0.18-0.412-0.276-0.684c-0.096-0.272-0.172-0.524-0.228-0.756h-0.024
			c-0.056,0.232-0.132,0.484-0.228,0.756c-0.096,0.272-0.188,0.5-0.276,0.684l-1.116,2.304h-1.704v-5.4
			c0-0.408,0.114-0.73,0.342-0.966s0.574-0.354,1.038-0.354h0.984v1.224h-0.696c-0.12,0-0.18,0.064-0.18,0.192v1.572
			c0,0.376-0.014,0.748-0.042,1.116s-0.078,0.776-0.15,1.224h0.036c0.104-0.416,0.214-0.774,0.33-1.074
			c0.116-0.3,0.222-0.542,0.318-0.726l0.876-1.644h0.96l0.828,1.644c0.096,0.184,0.202,0.426,0.318,0.726
			c0.116,0.3,0.226,0.658,0.33,1.074h0.036c-0.072-0.448-0.122-0.856-0.15-1.224c-0.028-0.368-0.042-0.74-0.042-1.116v-2.988h1.488
			v6.72h-1.704L62.45,41z"/>
		<path d="M68.366,40.94c0,0.456,0.096,0.78,0.288,0.972c0.192,0.192,0.464,0.288,0.816,0.288c0.344,0,0.666-0.102,0.966-0.306
			s0.526-0.466,0.678-0.786v-4.524h1.56v6.72h-1.392l-0.168-0.828c-0.088,0.12-0.202,0.238-0.342,0.354
			c-0.14,0.116-0.296,0.22-0.468,0.312c-0.172,0.092-0.362,0.166-0.57,0.222c-0.208,0.056-0.424,0.084-0.648,0.084
			c-0.712,0-1.27-0.196-1.674-0.588c-0.404-0.392-0.606-1.008-0.606-1.848v-4.428h1.56V40.94z"/>
		<path d="M78.71,38.972c0-0.432-0.07-0.754-0.21-0.966s-0.374-0.318-0.702-0.318c-0.368,0-0.72,0.092-1.056,0.276
			c-0.336,0.184-0.636,0.428-0.9,0.732v4.608h-1.56v-6.72h1.392l0.168,0.828c0.28-0.24,0.612-0.462,0.996-0.666
			c0.384-0.204,0.82-0.306,1.308-0.306c0.632,0,1.144,0.212,1.536,0.636c0.392,0.424,0.588,1.032,0.588,1.824v4.404h-1.56V38.972z"
			/>
		<path d="M74.81,35.744v-1.176h4.068v-1.14h1.392v2.316H74.81z"/>
		<path d="M78.878,32.78v-1.968h1.392v1.968H78.878z"/>
		<path d="M86.438,43.964v1.224H81.05v-1.224H86.438z"/>
		<path d="M91.826,43.964v1.224h-5.388v-1.224H91.826z"/>
		<path d="M97.214,43.964v1.224h-5.388v-1.224H97.214z"/>
		<path d="M102.602,43.964v1.224h-5.388v-1.224H102.602z"/>
		<path d="M107.99,43.964v1.224h-5.388v-1.224H107.99z"/>
		<path d="M113.377,43.964v1.224h-5.388v-1.224H113.377z"/>
		<path d="M121.525,43.964v1.224h-5.388v-1.224H121.525z"/>
		<path d="M126.913,43.964v1.224h-5.388v-1.224H126.913z"/>
		<path d="M132.301,43.964v1.224h-5.388v-1.224H132.301z"/>
		<path d="M137.689,43.964v1.224h-5.388v-1.224H137.689z"/>
		<path d="M143.077,43.964v1.224h-5.388v-1.224H143.077z"/>
		<path d="M148.465,43.964v1.224h-5.388v-1.224H148.465z"/>
		<path d="M153.854,43.964v1.224h-5.389v-1.224H153.854z"/>
		<path d="M159.24,43.964v1.224h-5.389v-1.224H159.24z"/>
		<path d="M167.389,43.964v1.224H162v-1.224H167.389z"/>
		<path d="M172.775,43.964v1.224h-5.387v-1.224H172.775z"/>
		<path d="M178.164,43.964v1.224h-5.389v-1.224H178.164z"/>
		<path d="M183.552,43.964v1.224h-5.388v-1.224H183.552z"/>
		<path d="M188.939,43.964v1.224h-5.389v-1.224H188.939z"/>
		<path d="M194.328,43.964v1.224h-5.389v-1.224H194.328z"/>
		<path d="M199.716,43.964v1.224h-5.388v-1.224H199.716z"/>
		<path d="M205.104,43.964v1.224h-5.389v-1.224H205.104z"/>
		<path d="M213.252,43.964v1.224h-5.389v-1.224H213.252z"/>
		<path d="M218.639,43.964v1.224h-5.388v-1.224H218.639z"/>
		<path d="M226.787,43.964v1.224h-5.389v-1.224H226.787z"/>
		<path d="M232.174,43.964v1.224h-5.387v-1.224H232.174z"/>
		<path d="M237.562,43.964v1.224h-5.39v-1.224H237.562z"/>
		<path d="M242.949,43.964v1.224h-5.387v-1.224H242.949z"/>
	</g>
	<rect x="30.141" y="70.71" fill="#FFFFFF" width="239.718" height="229.29"/>
	<g>
		<path d="M31.604,313.085c0.06-0.114,0.154-0.213,0.281-0.293c0.128-0.08,0.299-0.12,0.514-0.12h0.42v0.811h-0.442
			c-0.23,0-0.405,0.045-0.525,0.136c-0.12,0.09-0.203,0.215-0.248,0.375v0.952h-0.975v-2.61c0-0.233,0.043-0.454,0.131-0.66
			c0.087-0.204,0.212-0.382,0.375-0.532c0.163-0.149,0.361-0.269,0.596-0.355s0.503-0.131,0.803-0.131
			c0.3,0,0.568,0.044,0.803,0.131c0.235,0.088,0.434,0.206,0.597,0.355c0.163,0.15,0.288,0.328,0.375,0.532
			c0.087,0.206,0.131,0.427,0.131,0.66v2.61h-0.975v-2.604c0-0.26-0.08-0.477-0.24-0.648c-0.16-0.172-0.39-0.258-0.69-0.258
			c-0.3,0-0.53,0.086-0.69,0.258c-0.16,0.173-0.24,0.39-0.24,0.648L31.604,313.085L31.604,313.085z"/>
		<path d="M33.937,310.331c-0.115,0-0.224-0.021-0.327-0.063c-0.102-0.043-0.191-0.102-0.266-0.178
			c-0.075-0.074-0.135-0.163-0.18-0.264c-0.045-0.102-0.067-0.211-0.067-0.331c0-0.121,0.022-0.231,0.067-0.332
			s0.105-0.188,0.18-0.265c0.075-0.076,0.164-0.135,0.266-0.176c0.103-0.043,0.211-0.064,0.327-0.064
			c0.12,0,0.231,0.021,0.334,0.064c0.103,0.041,0.191,0.102,0.266,0.176c0.075,0.076,0.135,0.164,0.18,0.265
			c0.045,0.101,0.067,0.211,0.067,0.332c0,0.12-0.022,0.229-0.067,0.331c-0.045,0.101-0.105,0.188-0.18,0.264
			c-0.075,0.076-0.164,0.135-0.266,0.178C34.168,310.311,34.057,310.331,33.937,310.331z M33.937,309.791
			c0.085,0,0.155-0.027,0.21-0.086s0.083-0.129,0.083-0.214s-0.027-0.155-0.083-0.21c-0.055-0.057-0.125-0.083-0.21-0.083
			c-0.075,0-0.141,0.026-0.199,0.083c-0.058,0.055-0.086,0.125-0.086,0.21s0.029,0.155,0.086,0.214
			C33.795,309.764,33.862,309.791,33.937,309.791z M37.125,314.945v-2.701c0-0.54-0.225-0.811-0.675-0.811
			c-0.225,0-0.446,0.041-0.664,0.121c-0.217,0.079-0.411,0.174-0.581,0.283l-0.248-0.697c0.205-0.135,0.444-0.25,0.717-0.345
			c0.272-0.096,0.559-0.144,0.859-0.144c0.515,0,0.905,0.146,1.17,0.436c0.265,0.29,0.397,0.686,0.397,1.186v2.672H37.125z"/>
		<path d="M39.954,313.287c-0.09,0-0.135,0.048-0.135,0.143v0.022c0,0.534,0.297,0.803,0.893,0.803c0.355,0,0.635-0.116,0.84-0.353
			c0.205-0.236,0.308-0.604,0.308-1.104c0-0.439-0.111-0.777-0.334-1.013c-0.223-0.235-0.514-0.353-0.874-0.353
			c-0.305,0-0.58,0.053-0.825,0.16c-0.245,0.107-0.462,0.233-0.653,0.379l-0.315-0.728c0.21-0.149,0.468-0.287,0.773-0.409
			c0.305-0.123,0.667-0.184,1.088-0.184c0.31,0,0.595,0.047,0.855,0.143c0.26,0.096,0.484,0.234,0.671,0.42
			c0.188,0.186,0.333,0.412,0.436,0.684c0.102,0.27,0.154,0.58,0.154,0.931c0,0.739-0.184,1.293-0.552,1.657
			c-0.368,0.365-0.866,0.548-1.497,0.548c-0.32,0-0.6-0.037-0.84-0.112c-0.24-0.074-0.439-0.183-0.596-0.322
			c-0.158-0.141-0.277-0.308-0.356-0.502c-0.08-0.195-0.12-0.41-0.12-0.646v-0.127c0-0.275,0.06-0.48,0.18-0.615
			c0.12-0.136,0.315-0.203,0.585-0.203h0.96v0.78L39.954,313.287L39.954,313.287z"/>
		<path d="M47.043,313.7c0,0.239-0.034,0.442-0.101,0.606c-0.068,0.166-0.175,0.301-0.323,0.405
			c-0.147,0.104-0.335,0.183-0.562,0.229c-0.228,0.048-0.499,0.07-0.814,0.07c-0.32,0-0.594-0.025-0.822-0.078
			s-0.414-0.134-0.559-0.244c-0.145-0.109-0.251-0.252-0.319-0.428c-0.067-0.175-0.101-0.385-0.101-0.63v-0.397h0.93v0.397
			c0,0.239,0.069,0.408,0.207,0.507c0.137,0.098,0.359,0.146,0.664,0.146c0.315,0,0.539-0.043,0.671-0.128
			c0.132-0.086,0.199-0.237,0.199-0.457v-0.338c0-0.101-0.026-0.174-0.079-0.219c-0.053-0.045-0.126-0.074-0.222-0.09l-1.275-0.18
			c-0.345-0.051-0.618-0.156-0.818-0.318c-0.2-0.162-0.3-0.41-0.3-0.74c0-0.354,0.156-0.638,0.469-0.848s0.756-0.314,1.332-0.314
			c0.315,0,0.609,0.027,0.882,0.082c0.272,0.057,0.529,0.146,0.769,0.271l-0.173,0.721c-0.24-0.131-0.484-0.221-0.731-0.271
			c-0.247-0.05-0.491-0.075-0.731-0.075c-0.29,0-0.51,0.04-0.66,0.12c-0.15,0.08-0.225,0.179-0.225,0.292
			c0,0.186,0.125,0.298,0.375,0.338l1.253,0.18c0.335,0.051,0.597,0.157,0.784,0.319s0.281,0.414,0.281,0.754L47.043,313.7
			L47.043,313.7z"/>
		<path d="M43.487,310.219v-0.734H46.9v0.734H43.487z"/>
		<path d="M49.729,315.035c-0.585,0-1.041-0.141-1.366-0.42c-0.325-0.28-0.487-0.703-0.487-1.268v-2.604h0.975v2.604
			c0,0.289,0.078,0.514,0.232,0.67c0.155,0.158,0.37,0.236,0.646,0.236c0.275,0,0.49-0.078,0.645-0.236
			c0.155-0.156,0.233-0.381,0.233-0.67v-2.604h0.975v2.604c0,0.563-0.163,0.986-0.488,1.268
			C50.769,314.896,50.314,315.035,49.729,315.035z"/>
		<path d="M54.268,314.945v-2.701c0-0.54-0.225-0.811-0.675-0.811c-0.225,0-0.446,0.041-0.664,0.121
			c-0.217,0.079-0.411,0.174-0.581,0.283l-0.248-0.697c0.205-0.135,0.444-0.25,0.717-0.345c0.272-0.096,0.559-0.144,0.859-0.144
			c0.515,0,0.905,0.146,1.17,0.436c0.265,0.29,0.397,0.686,0.397,1.186v2.672H54.268z"/>
		<path d="M58.792,310.744h0.975v2.581c0,0.255-0.037,0.487-0.112,0.696c-0.075,0.211-0.193,0.392-0.353,0.541
			c-0.16,0.149-0.368,0.267-0.623,0.349c-0.255,0.083-0.562,0.124-0.922,0.124c-0.255,0-0.488-0.028-0.698-0.086
			c-0.21-0.059-0.392-0.146-0.544-0.264c-0.153-0.117-0.271-0.265-0.356-0.441c-0.085-0.178-0.127-0.385-0.127-0.619
			c0-0.24,0.071-0.445,0.213-0.619c0.143-0.173,0.324-0.277,0.544-0.318c-0.095-0.021-0.188-0.062-0.277-0.123
			c-0.089-0.062-0.171-0.139-0.244-0.227c-0.073-0.087-0.13-0.188-0.173-0.3c-0.043-0.112-0.063-0.229-0.063-0.349
			c0-0.142,0.026-0.271,0.079-0.396c0.052-0.122,0.127-0.229,0.225-0.317c0.098-0.09,0.217-0.162,0.36-0.215
			c0.143-0.053,0.304-0.078,0.484-0.078c0.19,0,0.356,0.015,0.499,0.041c0.143,0.027,0.267,0.066,0.372,0.116l-0.098,0.728
			c-0.085-0.034-0.167-0.061-0.248-0.074s-0.155-0.021-0.225-0.021c-0.165,0-0.292,0.033-0.379,0.102s-0.131,0.158-0.131,0.273
			c0,0.146,0.055,0.256,0.165,0.334c0.11,0.076,0.23,0.115,0.36,0.115h0.57l0.083,0.75h-0.51c-0.205,0-0.364,0.051-0.477,0.15
			c-0.113,0.099-0.169,0.236-0.169,0.412c0,0.205,0.075,0.363,0.225,0.477c0.15,0.113,0.338,0.169,0.563,0.169
			c0.335,0,0.587-0.085,0.757-0.255s0.255-0.396,0.255-0.684V310.744z"/>
		<path d="M33.509,323.357v0.766H30.14v-0.766H33.509z"/>
		<path d="M36.878,323.357v0.766h-3.369v-0.766H36.878z"/>
		<path d="M40.247,323.357v0.766h-3.369v-0.766H40.247z"/>
		<path d="M43.615,323.357v0.766h-3.369v-0.766H43.615z"/>
		<path d="M48.709,323.357v0.766H45.34v-0.766H48.709z"/>
		<path d="M55.529,323.357v0.766H52.16v-0.766H55.529z"/>
		<path d="M58.898,323.357v0.766h-3.369v-0.766H58.898z"/>
		<path d="M62.267,323.357v0.766h-3.369v-0.766H62.267z"/>
		<path d="M65.635,323.357v0.766h-3.369v-0.766H65.635z"/>
		<path d="M101.033,323.357v0.766h-3.369v-0.766H101.033z"/>
		<path d="M104.401,323.357v0.766h-3.368v-0.766H104.401z"/>
		<path d="M107.769,323.357v0.766h-3.368v-0.766H107.769z"/>
		<path d="M111.138,323.357v0.766h-3.368v-0.766H111.138z"/>
		<path d="M114.506,323.357v0.766h-3.368v-0.766H114.506z"/>
		<path d="M119.601,323.357v0.766h-3.368v-0.766H119.601z"/>
		<path d="M122.969,323.357v0.766h-3.368v-0.766H122.969z"/>
		<path d="M126.338,323.357v0.766h-3.368v-0.766H126.338z"/>
		<path d="M129.707,323.357v0.766h-3.368v-0.766H129.707z"/>
		<path d="M133.075,323.357v0.766h-3.368v-0.766H133.075z"/>
		<path d="M138.168,323.357v0.766H134.8v-0.766H138.168z"/>
		<path d="M168.555,323.357v0.766h-3.369v-0.766H168.555z"/>
		<path d="M171.922,323.357v0.766h-3.367v-0.766H171.922z"/>
		<path d="M175.291,323.357v0.766h-3.369v-0.766H175.291z"/>
		<path d="M178.658,323.357v0.766h-3.367v-0.766H178.658z"/>
		<path d="M182.027,323.357v0.766h-3.369v-0.766H182.027z"/>
		<path d="M185.395,323.357v0.766h-3.367v-0.766H185.395z"/>
		<path d="M188.764,323.357v0.766h-3.369v-0.766H188.764z"/>
		<path d="M193.857,323.357v0.766h-3.369v-0.766H193.857z"/>
		<path d="M197.225,323.357v0.766h-3.367v-0.766H197.225z"/>
		<path d="M200.594,323.357v0.766h-3.369v-0.766H200.594z"/>
		<path d="M33.509,331.357v0.766H30.14v-0.766H33.509z"/>
		<path d="M36.878,331.357v0.766h-3.369v-0.766H36.878z"/>
		<path d="M41.972,331.357v0.766h-3.369v-0.766H41.972z"/>
		<path d="M45.341,331.357v0.766h-3.369v-0.766H45.341z"/>
		<path d="M48.709,331.357v0.766H45.34v-0.766H48.709z"/>
		<path d="M52.078,331.357v0.766h-3.369v-0.766H52.078z"/>
		<path d="M55.447,331.357v0.766h-3.369v-0.766H55.447z"/>
		<path d="M58.815,331.357v0.766h-3.369v-0.766H58.815z"/>
		<path d="M62.184,331.357v0.766h-3.369v-0.766H62.184z"/>
		<path d="M65.553,331.357v0.766h-3.369v-0.766H65.553z"/>
		<path d="M68.921,331.357v0.766h-3.369v-0.766H68.921z"/>
		<path d="M74.016,331.357v0.766h-3.369v-0.766H74.016z"/>
		<path d="M77.384,331.357v0.766h-3.369v-0.766H77.384z"/>
		<path d="M80.753,331.357v0.766h-3.369v-0.766H80.753z"/>
		<path d="M101.033,331.357v0.766h-3.368v-0.766H101.033z"/>
		<path d="M104.402,331.357v0.766h-3.368v-0.766H104.402z"/>
		<path d="M107.77,331.357v0.766h-3.368v-0.766H107.77z"/>
		<path d="M111.139,331.357v0.766h-3.368v-0.766H111.139z"/>
		<path d="M114.507,331.357v0.766h-3.368v-0.766H114.507z"/>
		<path d="M119.602,331.357v0.766h-3.368v-0.766H119.602z"/>
		<path d="M122.97,331.357v0.766h-3.368v-0.766H122.97z"/>
		<path d="M128.064,331.357v0.766h-3.368v-0.766H128.064z"/>
	</g>
	<g>
		<path d="M43.425,57.214v1.224h-5.388v-1.224H43.425z"/>
		<path d="M48.812,57.214v1.224h-5.388v-1.224H48.812z"/>
		<path d="M54.201,57.214v1.224h-5.388v-1.224H54.201z"/>
		<path d="M59.588,57.214v1.224H54.2v-1.224H59.588z"/>
		<path d="M64.977,57.214v1.224h-5.388v-1.224H64.977z"/>
		<path d="M70.364,57.214v1.224h-5.388v-1.224H70.364z"/>
		<path d="M78.512,57.214v1.224h-5.388v-1.224H78.512z"/>
		<path d="M83.9,57.214v1.224h-5.388v-1.224H83.9z"/>
		<path d="M89.288,57.214v1.224H83.9v-1.224H89.288z"/>
		<path d="M94.676,57.214v1.224h-5.388v-1.224H94.676z"/>
		<path d="M100.063,57.214v1.224h-5.388v-1.224H100.063z"/>
		<path d="M105.451,57.214v1.224h-5.388v-1.224H105.451z"/>
		<path d="M110.839,57.214v1.224h-5.388v-1.224H110.839z"/>
		<path d="M116.227,57.214v1.224h-5.388v-1.224H116.227z"/>
		<path d="M121.615,57.214v1.224h-5.388v-1.224H121.615z"/>
		<path d="M127.003,57.214v1.224h-5.388v-1.224H127.003z"/>
		<path d="M132.391,57.214v1.224h-5.388v-1.224H132.391z"/>
		<path d="M140.539,57.214v1.224h-5.388v-1.224H140.539z"/>
		<path d="M145.927,57.214v1.224h-5.388v-1.224H145.927z"/>
		<path d="M151.314,57.214v1.224h-5.389v-1.224H151.314z"/>
		<path d="M156.702,57.214v1.224h-5.388v-1.224H156.702z"/>
		<path d="M162.09,57.214v1.224h-5.388v-1.224H162.09z"/>
		<path d="M167.479,57.214v1.224h-5.389v-1.224H167.479z"/>
		<path d="M172.865,57.214v1.224h-5.389v-1.224H172.865z"/>
		<path d="M178.254,57.214v1.224h-5.389v-1.224H178.254z"/>
		<path d="M186.4,57.214v1.224h-5.387v-1.224H186.4z"/>
		<path d="M191.789,57.214v1.224H186.4v-1.224H191.789z"/>
		<path d="M197.178,57.214v1.224h-5.389v-1.224H197.178z"/>
		<path d="M202.564,57.214v1.224h-5.388v-1.224H202.564z"/>
		<path d="M207.953,57.214v1.224h-5.389v-1.224H207.953z"/>
		<path d="M213.341,57.214v1.224h-5.388v-1.224H213.341z"/>
		<path d="M218.729,57.214v1.224h-5.388v-1.224H218.729z"/>
		<path d="M224.117,57.214v1.224h-5.389v-1.224H224.117z"/>
		<path d="M232.266,57.214v1.224h-5.389v-1.224H232.266z"/>
		<path d="M237.652,57.214v1.224h-5.389v-1.224H237.652z"/>
		<path d="M245.799,57.214v1.224h-5.387v-1.224H245.799z"/>
		<path d="M251.188,57.214v1.224h-5.387v-1.224H251.188z"/>
		<path d="M256.576,57.214v1.224h-5.389v-1.224H256.576z"/>
		<path d="M261.963,57.214v1.224h-5.387v-1.224H261.963z"/>
	</g>
	<g>
		<path d="M239.242,310.744h0.977v2.693c0,0.529-0.128,0.929-0.383,1.195c-0.256,0.268-0.607,0.401-1.059,0.401
			c-0.146,0-0.279-0.019-0.404-0.056c-0.125-0.039-0.242-0.086-0.35-0.144c-0.108-0.058-0.203-0.123-0.289-0.194
			c-0.084-0.072-0.154-0.145-0.209-0.215l-0.105,0.518h-0.871v-4.2h0.977v2.827c0.045,0.096,0.103,0.185,0.173,0.268
			c0.069,0.082,0.149,0.155,0.239,0.219c0.09,0.062,0.187,0.11,0.289,0.146c0.103,0.034,0.207,0.053,0.312,0.053
			c0.471,0,0.705-0.287,0.705-0.862L239.242,310.744L239.242,310.744z"/>
		<path d="M242.904,314.945v-2.701c0-0.54-0.227-0.811-0.676-0.811c-0.226,0-0.446,0.041-0.664,0.121
			c-0.217,0.079-0.412,0.174-0.582,0.283l-0.248-0.697c0.205-0.135,0.445-0.25,0.718-0.345c0.272-0.096,0.56-0.144,0.858-0.144
			c0.516,0,0.905,0.146,1.17,0.436c0.266,0.29,0.397,0.686,0.397,1.186v2.672H242.904z"/>
		<path d="M246.857,311.127l0.795-0.473c0.386,0.09,0.673,0.252,0.863,0.486c0.188,0.235,0.284,0.532,0.284,0.894v2.911h-0.976
			v-2.918c0-0.301-0.112-0.473-0.338-0.52l-0.631,0.36l-0.6-0.345c-0.201,0.1-0.354,0.268-0.458,0.502s-0.157,0.524-0.157,0.871
			c0,0.25,0.025,0.459,0.078,0.625c0.053,0.168,0.121,0.305,0.207,0.41c0.084,0.104,0.178,0.18,0.281,0.225
			c0.102,0.045,0.203,0.066,0.303,0.066c0.102,0,0.194-0.007,0.282-0.021c0.087-0.016,0.181-0.045,0.281-0.09l0.173,0.705
			c-0.105,0.064-0.223,0.113-0.35,0.143s-0.287,0.045-0.478,0.045c-0.233,0-0.459-0.041-0.671-0.123
			c-0.213-0.083-0.398-0.21-0.561-0.383c-0.16-0.173-0.287-0.393-0.381-0.656c-0.096-0.266-0.144-0.583-0.144-0.953
			c0-0.265,0.034-0.519,0.101-0.762c0.068-0.242,0.166-0.464,0.293-0.664c0.127-0.199,0.283-0.37,0.465-0.51
			c0.185-0.141,0.39-0.24,0.619-0.301L246.857,311.127z"/>
		<path d="M251.037,314.255c0.26,0,0.461-0.037,0.604-0.112c0.144-0.074,0.215-0.189,0.215-0.345c0-0.091-0.026-0.168-0.08-0.233
			c-0.053-0.063-0.123-0.121-0.209-0.168c-0.088-0.047-0.186-0.09-0.293-0.127c-0.106-0.037-0.215-0.074-0.318-0.108
			c-0.186-0.062-0.361-0.127-0.528-0.199c-0.168-0.071-0.313-0.161-0.438-0.267c-0.125-0.104-0.225-0.229-0.301-0.371
			c-0.074-0.143-0.111-0.312-0.111-0.514c0-0.166,0.038-0.317,0.115-0.459c0.078-0.14,0.188-0.263,0.326-0.367
			c0.141-0.104,0.307-0.187,0.5-0.243c0.19-0.058,0.402-0.087,0.633-0.087c0.32,0,0.602,0.035,0.845,0.104
			c0.243,0.07,0.469,0.16,0.679,0.271l-0.255,0.691c-0.194-0.105-0.392-0.181-0.589-0.223c-0.197-0.043-0.408-0.062-0.635-0.062
			c-0.189,0-0.35,0.027-0.479,0.086c-0.129,0.058-0.194,0.15-0.194,0.281c0,0.146,0.082,0.258,0.248,0.342
			c0.164,0.082,0.379,0.168,0.646,0.258c0.21,0.07,0.399,0.146,0.569,0.226c0.171,0.08,0.316,0.175,0.438,0.281
			s0.216,0.235,0.281,0.383s0.099,0.321,0.099,0.521c0,0.181-0.035,0.345-0.104,0.492c-0.07,0.146-0.177,0.275-0.316,0.387
			c-0.14,0.109-0.313,0.195-0.524,0.255c-0.209,0.06-0.457,0.09-0.742,0.09c-0.301,0-0.578-0.031-0.836-0.095
			c-0.258-0.062-0.486-0.15-0.688-0.267l0.232-0.741c0.185,0.1,0.38,0.178,0.585,0.235S250.82,314.255,251.037,314.255z"/>
		<path d="M255.298,314.945v-2.701c0-0.54-0.226-0.811-0.675-0.811c-0.227,0-0.447,0.041-0.664,0.121
			c-0.218,0.079-0.412,0.174-0.582,0.283l-0.248-0.697c0.205-0.135,0.444-0.25,0.717-0.345c0.273-0.096,0.561-0.144,0.859-0.144
			c0.516,0,0.904,0.146,1.17,0.436s0.398,0.686,0.398,1.186v2.672H255.298z"/>
		<path d="M259.791,314.945v-1.838h-0.914c-0.281,0-0.504,0.041-0.672,0.123s-0.252,0.233-0.252,0.453
			c0,0.182,0.059,0.321,0.173,0.424c0.115,0.104,0.258,0.154,0.429,0.154c0.09,0,0.184-0.009,0.28-0.025
			c0.099-0.019,0.196-0.051,0.296-0.103l0.158,0.714c-0.13,0.061-0.264,0.103-0.4,0.127c-0.139,0.024-0.285,0.037-0.438,0.037
			c-0.205,0-0.396-0.027-0.57-0.082c-0.176-0.056-0.328-0.138-0.458-0.248c-0.13-0.108-0.232-0.246-0.309-0.412
			c-0.073-0.164-0.111-0.357-0.111-0.578c0-0.465,0.161-0.803,0.482-1.017c0.322-0.213,0.812-0.317,1.468-0.317h0.84v-0.144
			c0-0.104-0.019-0.207-0.052-0.305c-0.035-0.097-0.088-0.185-0.157-0.259c-0.07-0.074-0.159-0.135-0.267-0.18
			c-0.108-0.046-0.233-0.068-0.379-0.068c-0.311,0-0.582,0.046-0.813,0.136c-0.233,0.09-0.449,0.208-0.649,0.353l-0.308-0.675
			c0.194-0.146,0.449-0.274,0.762-0.391c0.312-0.114,0.664-0.172,1.054-0.172c0.115,0,0.229,0.01,0.342,0.028
			c0.113,0.021,0.212,0.049,0.297,0.084l0.255-0.315h1.073l-0.615,0.735c0.13,0.141,0.23,0.297,0.304,0.473
			c0.072,0.175,0.108,0.359,0.108,0.556v2.729h-0.955V314.945z"/>
		<path d="M259.807,310.219v-1.455h0.9v1.455H259.807z"/>
		<path d="M261.645,313.895c0.17,0.102,0.356,0.187,0.56,0.256c0.203,0.07,0.409,0.104,0.618,0.104c0.361,0,0.636-0.118,0.822-0.356
			c0.188-0.236,0.281-0.588,0.281-1.053c0-0.486-0.1-0.843-0.297-1.07c-0.197-0.227-0.469-0.34-0.814-0.34
			c-0.209,0-0.41,0.033-0.604,0.104s-0.381,0.17-0.566,0.3l-0.225-0.733c0.205-0.137,0.438-0.244,0.697-0.328
			c0.26-0.082,0.525-0.122,0.795-0.122c0.631,0,1.119,0.185,1.467,0.555s0.521,0.897,0.521,1.583c0,0.75-0.176,1.312-0.529,1.686
			c-0.352,0.371-0.842,0.559-1.467,0.559c-0.299,0-0.578-0.032-0.836-0.098c-0.258-0.064-0.475-0.16-0.648-0.285L261.645,313.895z"
			/>
		<path d="M266.664,313.468c0,0.284,0.061,0.487,0.18,0.607c0.12,0.12,0.29,0.18,0.51,0.18c0.215,0,0.416-0.063,0.604-0.19
			s0.329-0.291,0.424-0.492v-2.827h0.976v4.2h-0.871l-0.104-0.518c-0.056,0.075-0.126,0.148-0.214,0.223
			c-0.088,0.071-0.187,0.137-0.293,0.193s-0.228,0.104-0.354,0.139c-0.131,0.035-0.267,0.054-0.406,0.054
			c-0.445,0-0.793-0.122-1.047-0.367c-0.252-0.245-0.379-0.631-0.379-1.155v-2.769h0.977v2.723H266.664z"/>
		<path d="M247.451,324.361v0.765h-3.369v-0.765H247.451z"/>
		<path d="M249.627,320.91c0-0.155,0.053-0.292,0.157-0.409s0.255-0.177,0.45-0.177s0.345,0.06,0.449,0.177s0.157,0.254,0.157,0.409
			c0,0.154-0.053,0.291-0.157,0.408s-0.254,0.177-0.449,0.177s-0.346-0.06-0.45-0.177S249.627,321.064,249.627,320.91z
			 M249.627,323.461c0-0.154,0.053-0.292,0.157-0.409c0.104-0.116,0.255-0.177,0.45-0.177s0.345,0.061,0.449,0.177
			c0.104,0.117,0.157,0.255,0.157,0.409s-0.053,0.291-0.157,0.408s-0.254,0.177-0.449,0.177s-0.346-0.06-0.45-0.177
			S249.627,323.615,249.627,323.461z"/>
		<path d="M256.386,324.361v0.765h-3.368v-0.765H256.386z"/>
		<path d="M259.754,324.361v0.765h-3.368v-0.765H259.754z"/>
		<path d="M263.123,324.361v0.765h-3.369v-0.765H263.123z"/>
		<path d="M266.491,324.361v0.765h-3.368v-0.765H266.491z"/>
		<path d="M269.859,324.361v0.765h-3.368v-0.765H269.859z"/>
	</g>
	<rect x="30.141" y="340.5" fill="#FFFFFF" width="239.718" height="34.5"/>
	<polygon fill="#FFFFFF" stroke="#000000" stroke-width="10" stroke-linecap="round" stroke-miterlimit="10" points="100,129.5 
		73,182.5 78,212.5 86.5,221.5 93,251 115,277 132.5,270.5 153,245 178,238.5 224,210.5 243.5,197 236,167 212,145.5 182.5,132 
		158.25,108.5 135,105 123.5,123.5 109,126 	"/>
</g>
</svg>
