<?xml version="1.0" encoding="utf-8"?>
<!-- Generator: Adobe Illustrator 16.0.0, SVG Export Plug-In . SVG Version: 6.00 Build 0)  -->
<!DOCTYPE svg PUBLIC "-//W3C//DTD SVG 1.1//EN" "http://www.w3.org/Graphics/SVG/1.1/DTD/svg11.dtd">
<svg version="1.1" id="Layer_1" xmlns="http://www.w3.org/2000/svg" xmlns:xlink="http://www.w3.org/1999/xlink" x="0px" y="0px"
	 width="300px" height="400px" viewBox="0 0 300 400" enable-background="new 0 0 300 400" xml:space="preserve">
<g id="Layer_1_1_">
	<path fill="#EAEAEA" d="M287.616,374.346c0,5.522-4.478,10-10,10H22.383c-5.523,0-10-4.478-10-10V25.655c0-5.523,4.477-10,10-10
		h255.233c5.522,0,10,4.477,10,10V374.346z"/>
</g>
<g id="Layer_2">
	<g>
		<path d="M54.242,36.583v6.72h-1.56v-6.72H54.242z M56.978,36.583v6.72h-1.56v-6.72H56.978z"/>
		<path d="M62.45,41c-0.088-0.184-0.18-0.412-0.276-0.684c-0.096-0.272-0.172-0.524-0.228-0.756h-0.024
			c-0.056,0.232-0.132,0.484-0.228,0.756c-0.096,0.272-0.188,0.5-0.276,0.684l-1.116,2.304h-1.704v-5.4
			c0-0.408,0.114-0.73,0.342-0.966s0.574-0.354,1.038-0.354h0.984v1.224h-0.696c-0.12,0-0.18,0.064-0.18,0.192v1.572
			c0,0.376-0.014,0.748-0.042,1.116s-0.078,0.776-0.15,1.224h0.036c0.104-0.416,0.214-0.774,0.33-1.074
			c0.116-0.3,0.222-0.542,0.318-0.726l0.876-1.644h0.96l0.828,1.644c0.096,0.184,0.202,0.426,0.318,0.726
			c0.116,0.3,0.226,0.658,0.33,1.074h0.036c-0.072-0.448-0.122-0.856-0.15-1.224c-0.028-0.368-0.042-0.74-0.042-1.116v-2.988h1.488
			v6.72h-1.704L62.45,41z"/>
		<path d="M68.366,40.94c0,0.456,0.096,0.78,0.288,0.972c0.192,0.192,0.464,0.288,0.816,0.288c0.344,0,0.666-0.102,0.966-0.306
			s0.526-0.466,0.678-0.786v-4.524h1.56v6.72h-1.392l-0.168-0.828c-0.088,0.12-0.202,0.238-0.342,0.354
			c-0.14,0.116-0.296,0.22-0.468,0.312c-0.172,0.092-0.362,0.166-0.57,0.222c-0.208,0.056-0.424,0.084-0.648,0.084
			c-0.712,0-1.27-0.196-1.674-0.588c-0.404-0.392-0.606-1.008-0.606-1.848v-4.428h1.56V40.94z"/>
		<path d="M78.71,38.972c0-0.432-0.07-0.754-0.21-0.966s-0.374-0.318-0.702-0.318c-0.368,0-0.72,0.092-1.056,0.276
			c-0.336,0.184-0.636,0.428-0.9,0.732v4.608h-1.56v-6.72h1.392l0.168,0.828c0.28-0.24,0.612-0.462,0.996-0.666
			c0.384-0.204,0.82-0.306,1.308-0.306c0.632,0,1.144,0.212,1.536,0.636c0.392,0.424,0.588,1.032,0.588,1.824v4.404h-1.56V38.972z"
			/>
		<path d="M74.81,35.744v-1.176h4.068v-1.14h1.392v2.316H74.81z"/>
		<path d="M78.878,32.78v-1.968h1.392v1.968H78.878z"/>
		<path d="M86.438,43.964v1.224H81.05v-1.224H86.438z"/>
		<path d="M91.826,43.964v1.224h-5.388v-1.224H91.826z"/>
		<path d="M97.214,43.964v1.224h-5.388v-1.224H97.214z"/>
		<path d="M102.602,43.964v1.224h-5.388v-1.224H102.602z"/>
		<path d="M107.99,43.964v1.224h-5.388v-1.224H107.99z"/>
		<path d="M113.377,43.964v1.224h-5.388v-1.224H113.377z"/>
		<path d="M121.525,43.964v1.224h-5.388v-1.224H121.525z"/>
		<path d="M126.913,43.964v1.224h-5.388v-1.224H126.913z"/>
		<path d="M132.301,43.964v1.224h-5.388v-1.224H132.301z"/>
		<path d="M137.689,43.964v1.224h-5.388v-1.224H137.689z"/>
		<path d="M143.077,43.964v1.224h-5.388v-1.224H143.077z"/>
		<path d="M148.465,43.964v1.224h-5.388v-1.224H148.465z"/>
		<path d="M153.854,43.964v1.224h-5.389v-1.224H153.854z"/>
		<path d="M159.24,43.964v1.224h-5.389v-1.224H159.24z"/>
		<path d="M167.389,43.964v1.224H162v-1.224H167.389z"/>
		<path d="M172.775,43.964v1.224h-5.387v-1.224H172.775z"/>
		<path d="M178.164,43.964v1.224h-5.389v-1.224H178.164z"/>
		<path d="M183.552,43.964v1.224h-5.388v-1.224H183.552z"/>
		<path d="M188.939,43.964v1.224h-5.389v-1.224H188.939z"/>
		<path d="M194.328,43.964v1.224h-5.389v-1.224H194.328z"/>
		<path d="M199.716,43.964v1.224h-5.388v-1.224H199.716z"/>
		<path d="M205.104,43.964v1.224h-5.389v-1.224H205.104z"/>
		<path d="M213.252,43.964v1.224h-5.389v-1.224H213.252z"/>
		<path d="M218.639,43.964v1.224h-5.388v-1.224H218.639z"/>
		<path d="M226.787,43.964v1.224h-5.389v-1.224H226.787z"/>
		<path d="M232.174,43.964v1.224h-5.387v-1.224H232.174z"/>
		<path d="M237.562,43.964v1.224h-5.39v-1.224H237.562z"/>
		<path d="M242.949,43.964v1.224h-5.387v-1.224H242.949z"/>
	</g>
	<rect x="30.141" y="70.71" fill="#FFFFFF" width="239.718" height="244.392"/>
	<g>
		<path d="M84.077,328.085c0.06-0.114,0.154-0.213,0.281-0.293c0.128-0.08,0.299-0.12,0.514-0.12h0.42v0.811H84.85
			c-0.23,0-0.405,0.045-0.525,0.136c-0.12,0.09-0.203,0.215-0.248,0.375v0.952h-0.975v-2.61c0-0.233,0.043-0.454,0.131-0.66
			c0.087-0.204,0.212-0.382,0.375-0.532c0.163-0.149,0.361-0.269,0.596-0.355c0.235-0.087,0.503-0.131,0.803-0.131
			c0.3,0,0.568,0.044,0.803,0.131c0.235,0.088,0.434,0.206,0.597,0.355c0.163,0.15,0.288,0.328,0.375,0.532
			c0.087,0.206,0.131,0.427,0.131,0.66v2.61h-0.975v-2.604c0-0.26-0.08-0.477-0.24-0.648c-0.16-0.172-0.39-0.258-0.69-0.258
			c-0.3,0-0.53,0.086-0.69,0.258c-0.16,0.173-0.24,0.39-0.24,0.648L84.077,328.085L84.077,328.085z"/>
		<path d="M86.41,325.331c-0.115,0-0.224-0.021-0.327-0.063c-0.102-0.043-0.191-0.102-0.266-0.178
			c-0.075-0.074-0.135-0.163-0.18-0.264c-0.045-0.102-0.067-0.211-0.067-0.331c0-0.121,0.022-0.231,0.067-0.332
			c0.045-0.101,0.105-0.188,0.18-0.265c0.075-0.076,0.164-0.135,0.266-0.176c0.103-0.043,0.211-0.064,0.327-0.064
			c0.12,0,0.231,0.021,0.334,0.064c0.103,0.041,0.191,0.102,0.266,0.176c0.075,0.076,0.135,0.164,0.18,0.265
			s0.067,0.211,0.067,0.332c0,0.12-0.022,0.229-0.067,0.331c-0.045,0.101-0.105,0.188-0.18,0.264
			c-0.075,0.076-0.164,0.135-0.266,0.178S86.53,325.331,86.41,325.331z M86.41,324.791c0.085,0,0.155-0.027,0.21-0.086
			c0.055-0.059,0.083-0.129,0.083-0.214s-0.027-0.155-0.083-0.21c-0.055-0.057-0.125-0.083-0.21-0.083
			c-0.075,0-0.141,0.026-0.199,0.083c-0.058,0.055-0.086,0.125-0.086,0.21s0.029,0.155,0.086,0.214S86.335,324.791,86.41,324.791z
			 M89.599,329.945v-2.701c0-0.54-0.225-0.811-0.675-0.811c-0.225,0-0.446,0.041-0.664,0.121c-0.217,0.079-0.411,0.174-0.581,0.283
			l-0.248-0.697c0.205-0.135,0.444-0.25,0.717-0.345c0.272-0.096,0.559-0.144,0.859-0.144c0.515,0,0.905,0.146,1.17,0.436
			c0.265,0.29,0.397,0.686,0.397,1.186v2.672H89.599z"/>
		<path d="M92.427,328.287c-0.09,0-0.135,0.048-0.135,0.143v0.022c0,0.534,0.297,0.803,0.893,0.803c0.355,0,0.635-0.116,0.84-0.353
			s0.308-0.604,0.308-1.104c0-0.439-0.111-0.777-0.334-1.013s-0.514-0.353-0.874-0.353c-0.305,0-0.58,0.053-0.825,0.16
			c-0.245,0.107-0.462,0.233-0.653,0.379l-0.315-0.728c0.21-0.149,0.468-0.287,0.773-0.409c0.305-0.123,0.667-0.184,1.088-0.184
			c0.31,0,0.595,0.047,0.855,0.143c0.26,0.096,0.484,0.234,0.671,0.42c0.188,0.186,0.333,0.412,0.436,0.684
			c0.102,0.27,0.154,0.58,0.154,0.931c0,0.739-0.184,1.293-0.552,1.657c-0.368,0.365-0.866,0.548-1.497,0.548
			c-0.32,0-0.6-0.037-0.84-0.112c-0.24-0.074-0.439-0.183-0.596-0.322c-0.158-0.141-0.277-0.308-0.356-0.502
			c-0.08-0.195-0.12-0.41-0.12-0.646v-0.127c0-0.275,0.06-0.48,0.18-0.615c0.12-0.136,0.315-0.203,0.585-0.203h0.96v0.78
			L92.427,328.287L92.427,328.287z"/>
		<path d="M99.517,328.7c0,0.239-0.034,0.442-0.101,0.606c-0.068,0.166-0.175,0.301-0.323,0.405
			c-0.147,0.104-0.335,0.183-0.562,0.229c-0.228,0.048-0.499,0.07-0.814,0.07c-0.32,0-0.594-0.025-0.822-0.078
			s-0.414-0.134-0.559-0.244c-0.145-0.109-0.251-0.252-0.319-0.428c-0.067-0.175-0.101-0.385-0.101-0.63v-0.397h0.93v0.397
			c0,0.239,0.069,0.408,0.207,0.507c0.137,0.098,0.359,0.146,0.664,0.146c0.315,0,0.539-0.043,0.671-0.128
			c0.132-0.086,0.199-0.237,0.199-0.457v-0.338c0-0.101-0.026-0.174-0.079-0.219c-0.053-0.045-0.126-0.074-0.222-0.09l-1.275-0.18
			c-0.345-0.051-0.618-0.156-0.818-0.318c-0.2-0.162-0.3-0.41-0.3-0.74c0-0.354,0.156-0.638,0.469-0.848s0.756-0.314,1.332-0.314
			c0.315,0,0.609,0.027,0.882,0.082c0.272,0.057,0.529,0.146,0.769,0.271l-0.173,0.721c-0.24-0.131-0.484-0.221-0.731-0.271
			s-0.491-0.075-0.731-0.075c-0.29,0-0.51,0.04-0.66,0.12c-0.15,0.08-0.225,0.179-0.225,0.292c0,0.186,0.125,0.298,0.375,0.338
			l1.253,0.18c0.335,0.051,0.597,0.157,0.784,0.319s0.281,0.414,0.281,0.754L99.517,328.7L99.517,328.7z"/>
		<path d="M95.96,325.219v-0.734h3.414v0.734H95.96z"/>
		<path d="M102.202,330.035c-0.585,0-1.041-0.141-1.366-0.42c-0.325-0.28-0.487-0.703-0.487-1.268v-2.604h0.975v2.604
			c0,0.289,0.078,0.514,0.232,0.67c0.155,0.158,0.37,0.236,0.646,0.236c0.275,0,0.49-0.078,0.645-0.236
			c0.155-0.156,0.233-0.381,0.233-0.67v-2.604h0.975v2.604c0,0.563-0.163,0.986-0.488,1.268
			C103.242,329.896,102.787,330.035,102.202,330.035z"/>
		<path d="M106.741,329.945v-2.701c0-0.54-0.225-0.811-0.675-0.811c-0.225,0-0.446,0.041-0.664,0.121
			c-0.217,0.079-0.411,0.174-0.581,0.283l-0.248-0.697c0.205-0.135,0.444-0.25,0.717-0.345c0.272-0.096,0.559-0.144,0.859-0.144
			c0.515,0,0.905,0.146,1.17,0.436c0.265,0.29,0.397,0.686,0.397,1.186v2.672H106.741z"/>
		<path d="M111.265,325.744h0.975v2.581c0,0.255-0.037,0.487-0.112,0.696c-0.075,0.211-0.193,0.392-0.353,0.541
			c-0.16,0.149-0.368,0.267-0.623,0.349c-0.255,0.083-0.562,0.124-0.922,0.124c-0.255,0-0.488-0.028-0.698-0.086
			c-0.21-0.059-0.392-0.146-0.544-0.264c-0.153-0.117-0.271-0.265-0.356-0.441c-0.085-0.178-0.127-0.385-0.127-0.619
			c0-0.24,0.071-0.445,0.213-0.619c0.143-0.173,0.324-0.277,0.544-0.318c-0.095-0.021-0.188-0.062-0.277-0.123
			c-0.089-0.062-0.171-0.139-0.244-0.227c-0.073-0.087-0.13-0.188-0.173-0.3s-0.063-0.229-0.063-0.349
			c0-0.142,0.026-0.271,0.079-0.396c0.052-0.122,0.127-0.229,0.225-0.317c0.098-0.09,0.217-0.162,0.36-0.215
			s0.304-0.078,0.484-0.078c0.19,0,0.356,0.015,0.499,0.041c0.143,0.027,0.267,0.066,0.372,0.116l-0.098,0.728
			c-0.085-0.034-0.167-0.061-0.248-0.074c-0.081-0.014-0.155-0.021-0.225-0.021c-0.165,0-0.292,0.033-0.379,0.102
			c-0.087,0.068-0.131,0.158-0.131,0.273c0,0.146,0.055,0.256,0.165,0.334c0.11,0.076,0.23,0.115,0.36,0.115h0.57l0.083,0.75h-0.51
			c-0.205,0-0.364,0.051-0.477,0.15c-0.113,0.099-0.169,0.236-0.169,0.412c0,0.205,0.075,0.363,0.225,0.477s0.338,0.169,0.563,0.169
			c0.335,0,0.587-0.085,0.757-0.255c0.17-0.17,0.255-0.396,0.255-0.684V325.744L111.265,325.744z"/>
		<path d="M85.982,338.357v0.766h-3.369v-0.766H85.982z"/>
		<path d="M89.351,338.357v0.766h-3.369v-0.766H89.351z"/>
		<path d="M92.719,338.357v0.766H89.35v-0.766H92.719z"/>
		<path d="M96.088,338.357v0.766h-3.369v-0.766H96.088z"/>
		<path d="M101.182,338.357v0.766h-3.369v-0.766H101.182z"/>
		<path d="M85.982,346.357v0.766h-3.369v-0.766H85.982z"/>
		<path d="M89.351,346.357v0.766h-3.369v-0.766H89.351z"/>
		<path d="M94.445,346.357v0.766h-3.369v-0.766H94.445z"/>
		<path d="M97.813,346.357v0.766h-3.369v-0.766H97.813z"/>
		<path d="M101.182,346.357v0.766h-3.369v-0.766H101.182z"/>
		<path d="M85.982,354.357v0.766h-3.369v-0.766H85.982z"/>
		<path d="M89.351,354.357v0.766h-3.369v-0.766H89.351z"/>
		<path d="M92.719,354.357v0.766H89.35v-0.766H92.719z"/>
		<path d="M96.088,354.357v0.766h-3.369v-0.766H96.088z"/>
		<path d="M101.182,354.357v0.766h-3.369v-0.766H101.182z"/>
		<path d="M85.982,362.357v0.766h-3.369v-0.766H85.982z"/>
		<path d="M89.351,362.357v0.766h-3.369v-0.766H89.351z"/>
		<path d="M92.719,362.357v0.766H89.35v-0.766H92.719z"/>
		<path d="M96.088,362.357v0.766h-3.369v-0.766H96.088z"/>
		<path d="M99.457,362.357v0.766h-3.369v-0.766H99.457z"/>
		<path d="M85.982,370.357v0.766h-3.369v-0.766H85.982z"/>
		<path d="M89.351,370.357v0.766h-3.369v-0.766H89.351z"/>
		<path d="M92.719,370.357v0.766H89.35v-0.766H92.719z"/>
		<path d="M97.813,370.357v0.766h-3.369v-0.766H97.813z"/>
		<path d="M102.908,370.357v0.766h-3.369v-0.766H102.908z"/>
		<path d="M106.276,370.357v0.766h-3.369v-0.766H106.276z"/>
		<path d="M109.645,370.357v0.766h-3.369v-0.766H109.645z"/>
	</g>
	<rect x="30.141" y="322.668" fill="#FFFFFF" width="43.859" height="50.582"/>
	<g>
		<path d="M43.425,57.214v1.224h-5.388v-1.224H43.425z"/>
		<path d="M48.812,57.214v1.224h-5.388v-1.224H48.812z"/>
		<path d="M54.201,57.214v1.224h-5.388v-1.224H54.201z"/>
		<path d="M59.588,57.214v1.224H54.2v-1.224H59.588z"/>
		<path d="M64.977,57.214v1.224h-5.388v-1.224H64.977z"/>
		<path d="M70.364,57.214v1.224h-5.388v-1.224H70.364z"/>
		<path d="M78.512,57.214v1.224h-5.388v-1.224H78.512z"/>
		<path d="M83.9,57.214v1.224h-5.388v-1.224H83.9z"/>
		<path d="M89.288,57.214v1.224H83.9v-1.224H89.288z"/>
		<path d="M94.676,57.214v1.224h-5.388v-1.224H94.676z"/>
		<path d="M100.063,57.214v1.224h-5.388v-1.224H100.063z"/>
		<path d="M105.451,57.214v1.224h-5.388v-1.224H105.451z"/>
		<path d="M110.839,57.214v1.224h-5.388v-1.224H110.839z"/>
		<path d="M116.227,57.214v1.224h-5.388v-1.224H116.227z"/>
		<path d="M121.615,57.214v1.224h-5.388v-1.224H121.615z"/>
		<path d="M127.003,57.214v1.224h-5.388v-1.224H127.003z"/>
		<path d="M132.391,57.214v1.224h-5.388v-1.224H132.391z"/>
		<path d="M140.539,57.214v1.224h-5.388v-1.224H140.539z"/>
		<path d="M145.927,57.214v1.224h-5.388v-1.224H145.927z"/>
		<path d="M151.314,57.214v1.224h-5.389v-1.224H151.314z"/>
		<path d="M156.702,57.214v1.224h-5.388v-1.224H156.702z"/>
		<path d="M162.09,57.214v1.224h-5.388v-1.224H162.09z"/>
		<path d="M167.479,57.214v1.224h-5.389v-1.224H167.479z"/>
		<path d="M172.865,57.214v1.224h-5.389v-1.224H172.865z"/>
		<path d="M178.254,57.214v1.224h-5.389v-1.224H178.254z"/>
		<path d="M186.4,57.214v1.224h-5.387v-1.224H186.4z"/>
		<path d="M191.789,57.214v1.224H186.4v-1.224H191.789z"/>
		<path d="M197.178,57.214v1.224h-5.389v-1.224H197.178z"/>
		<path d="M202.564,57.214v1.224h-5.388v-1.224H202.564z"/>
		<path d="M207.953,57.214v1.224h-5.389v-1.224H207.953z"/>
		<path d="M213.341,57.214v1.224h-5.388v-1.224H213.341z"/>
		<path d="M218.729,57.214v1.224h-5.388v-1.224H218.729z"/>
		<path d="M224.117,57.214v1.224h-5.389v-1.224H224.117z"/>
		<path d="M232.266,57.214v1.224h-5.389v-1.224H232.266z"/>
		<path d="M237.652,57.214v1.224h-5.389v-1.224H237.652z"/>
		<path d="M245.799,57.214v1.224h-5.387v-1.224H245.799z"/>
		<path d="M251.188,57.214v1.224h-5.387v-1.224H251.188z"/>
		<path d="M256.576,57.214v1.224h-5.389v-1.224H256.576z"/>
		<path d="M261.963,57.214v1.224h-5.387v-1.224H261.963z"/>
	</g>
	<g>
		<path d="M118.816,338.357v0.766h-3.369v-0.766H118.816z"/>
		<path d="M123.91,338.357v0.766h-3.369v-0.766H123.91z"/>
		<path d="M127.278,338.357v0.766h-3.369v-0.766H127.278z"/>
		<path d="M132.373,338.357v0.766h-3.369v-0.766H132.373z"/>
		<path d="M135.741,338.357v0.766h-3.369v-0.766H135.741z"/>
		<path d="M118.816,346.357v0.766h-3.369v-0.766H118.816z"/>
		<path d="M122.185,346.357v0.766h-3.369v-0.766H122.185z"/>
		<path d="M127.278,346.357v0.766h-3.369v-0.766H127.278z"/>
		<path d="M130.647,346.357v0.766h-3.369v-0.766H130.647z"/>
		<path d="M134.016,346.357v0.766h-3.369v-0.766H134.016z"/>
		<path d="M137.384,346.357v0.766h-3.369v-0.766H137.384z"/>
		<path d="M118.816,354.357v0.766h-3.369v-0.766H118.816z"/>
		<path d="M122.185,354.357v0.766h-3.369v-0.766H122.185z"/>
		<path d="M125.553,354.357v0.766h-3.369v-0.766H125.553z"/>
		<path d="M130.647,354.357v0.766h-3.369v-0.766H130.647z"/>
		<path d="M135.741,354.357v0.766h-3.369v-0.766H135.741z"/>
	</g>
	<g>
		<path d="M239.242,324.244h0.977v2.693c0,0.529-0.128,0.929-0.383,1.195c-0.256,0.268-0.607,0.401-1.059,0.401
			c-0.146,0-0.279-0.019-0.404-0.056c-0.125-0.039-0.242-0.086-0.35-0.144c-0.108-0.058-0.203-0.123-0.289-0.194
			c-0.084-0.072-0.154-0.145-0.209-0.215l-0.105,0.518h-0.871v-4.2h0.977v2.827c0.045,0.096,0.103,0.185,0.173,0.268
			c0.069,0.082,0.149,0.155,0.239,0.219c0.09,0.062,0.187,0.11,0.289,0.146c0.103,0.034,0.207,0.053,0.312,0.053
			c0.471,0,0.705-0.287,0.705-0.862L239.242,324.244L239.242,324.244z"/>
		<path d="M242.904,328.445v-2.701c0-0.54-0.227-0.811-0.676-0.811c-0.226,0-0.446,0.041-0.664,0.121
			c-0.217,0.079-0.412,0.174-0.582,0.283l-0.248-0.697c0.205-0.135,0.445-0.25,0.718-0.345c0.272-0.096,0.56-0.144,0.858-0.144
			c0.516,0,0.905,0.146,1.17,0.436c0.266,0.29,0.397,0.686,0.397,1.186v2.672H242.904z"/>
		<path d="M246.857,324.627l0.795-0.473c0.386,0.09,0.673,0.252,0.863,0.486c0.188,0.235,0.284,0.532,0.284,0.894v2.911h-0.976
			v-2.918c0-0.301-0.112-0.473-0.338-0.52l-0.631,0.36l-0.6-0.345c-0.201,0.1-0.354,0.268-0.458,0.502s-0.157,0.524-0.157,0.871
			c0,0.25,0.025,0.459,0.078,0.625c0.053,0.168,0.121,0.305,0.207,0.41c0.084,0.104,0.178,0.18,0.281,0.225
			c0.102,0.045,0.203,0.066,0.303,0.066c0.102,0,0.194-0.007,0.282-0.021c0.087-0.016,0.181-0.045,0.281-0.09l0.173,0.705
			c-0.105,0.064-0.223,0.113-0.35,0.143s-0.287,0.045-0.478,0.045c-0.233,0-0.459-0.041-0.671-0.123
			c-0.213-0.083-0.398-0.21-0.561-0.383c-0.16-0.173-0.287-0.393-0.381-0.656c-0.096-0.266-0.144-0.583-0.144-0.953
			c0-0.265,0.034-0.519,0.101-0.762c0.068-0.242,0.166-0.464,0.293-0.664c0.127-0.199,0.283-0.37,0.465-0.51
			c0.185-0.141,0.39-0.24,0.619-0.301L246.857,324.627z"/>
		<path d="M251.037,327.755c0.26,0,0.461-0.037,0.604-0.112c0.144-0.074,0.215-0.189,0.215-0.345c0-0.091-0.026-0.168-0.08-0.233
			c-0.053-0.063-0.123-0.121-0.209-0.168c-0.088-0.047-0.186-0.09-0.293-0.127c-0.106-0.037-0.215-0.074-0.318-0.108
			c-0.186-0.062-0.361-0.127-0.528-0.199c-0.168-0.071-0.313-0.161-0.438-0.267c-0.125-0.104-0.225-0.229-0.301-0.371
			c-0.074-0.143-0.111-0.312-0.111-0.514c0-0.166,0.038-0.317,0.115-0.459c0.078-0.14,0.188-0.263,0.326-0.367
			c0.141-0.104,0.307-0.187,0.5-0.243c0.19-0.058,0.402-0.087,0.633-0.087c0.32,0,0.602,0.035,0.845,0.104
			c0.243,0.07,0.469,0.16,0.679,0.271l-0.255,0.691c-0.194-0.105-0.392-0.181-0.589-0.223c-0.197-0.043-0.408-0.062-0.635-0.062
			c-0.189,0-0.35,0.027-0.479,0.086c-0.129,0.058-0.194,0.15-0.194,0.281c0,0.146,0.082,0.258,0.248,0.342
			c0.164,0.082,0.379,0.168,0.646,0.258c0.21,0.07,0.399,0.146,0.569,0.226c0.171,0.08,0.316,0.175,0.438,0.281
			s0.216,0.235,0.281,0.383s0.099,0.321,0.099,0.521c0,0.181-0.035,0.345-0.104,0.492c-0.07,0.146-0.177,0.275-0.316,0.387
			c-0.14,0.109-0.313,0.195-0.524,0.255c-0.209,0.06-0.457,0.09-0.742,0.09c-0.301,0-0.578-0.031-0.836-0.095
			c-0.258-0.062-0.486-0.15-0.688-0.267l0.232-0.741c0.185,0.1,0.38,0.178,0.585,0.235S250.82,327.755,251.037,327.755z"/>
		<path d="M255.298,328.445v-2.701c0-0.54-0.226-0.811-0.675-0.811c-0.227,0-0.447,0.041-0.664,0.121
			c-0.218,0.079-0.412,0.174-0.582,0.283l-0.248-0.697c0.205-0.135,0.444-0.25,0.717-0.345c0.273-0.096,0.561-0.144,0.859-0.144
			c0.516,0,0.904,0.146,1.17,0.436s0.398,0.686,0.398,1.186v2.672H255.298z"/>
		<path d="M259.791,328.445v-1.838h-0.914c-0.281,0-0.504,0.041-0.672,0.123s-0.252,0.233-0.252,0.453
			c0,0.182,0.059,0.321,0.173,0.424c0.115,0.104,0.258,0.154,0.429,0.154c0.09,0,0.184-0.009,0.28-0.025
			c0.099-0.019,0.196-0.051,0.296-0.103l0.158,0.714c-0.13,0.061-0.264,0.103-0.4,0.127c-0.139,0.024-0.285,0.037-0.438,0.037
			c-0.205,0-0.396-0.027-0.57-0.082c-0.176-0.056-0.328-0.138-0.458-0.248c-0.13-0.108-0.232-0.246-0.309-0.412
			c-0.073-0.164-0.111-0.357-0.111-0.578c0-0.465,0.161-0.803,0.482-1.017c0.322-0.213,0.812-0.317,1.468-0.317h0.84v-0.144
			c0-0.104-0.019-0.207-0.052-0.305c-0.035-0.097-0.088-0.185-0.157-0.259c-0.07-0.074-0.159-0.135-0.267-0.18
			c-0.108-0.046-0.233-0.068-0.379-0.068c-0.311,0-0.582,0.046-0.813,0.136c-0.233,0.09-0.449,0.208-0.649,0.353l-0.308-0.675
			c0.194-0.146,0.449-0.274,0.762-0.391c0.312-0.114,0.664-0.172,1.054-0.172c0.115,0,0.229,0.01,0.342,0.028
			c0.113,0.021,0.212,0.049,0.297,0.084l0.255-0.315h1.073l-0.615,0.735c0.13,0.141,0.23,0.297,0.304,0.473
			c0.072,0.175,0.108,0.359,0.108,0.556v2.729h-0.955V328.445z"/>
		<path d="M259.807,323.719v-1.455h0.9v1.455H259.807z"/>
		<path d="M261.645,327.395c0.17,0.102,0.356,0.187,0.56,0.256c0.203,0.07,0.409,0.104,0.618,0.104c0.361,0,0.636-0.118,0.822-0.356
			c0.188-0.236,0.281-0.588,0.281-1.053c0-0.486-0.1-0.843-0.297-1.07c-0.197-0.227-0.469-0.34-0.814-0.34
			c-0.209,0-0.41,0.033-0.604,0.104s-0.381,0.17-0.566,0.3l-0.225-0.733c0.205-0.137,0.438-0.244,0.697-0.328
			c0.26-0.082,0.525-0.122,0.795-0.122c0.631,0,1.119,0.185,1.467,0.555s0.521,0.897,0.521,1.583c0,0.75-0.176,1.312-0.529,1.686
			c-0.352,0.371-0.842,0.559-1.467,0.559c-0.299,0-0.578-0.032-0.836-0.098c-0.258-0.064-0.475-0.16-0.648-0.285L261.645,327.395z"
			/>
		<path d="M266.664,326.968c0,0.284,0.061,0.487,0.18,0.607c0.12,0.12,0.29,0.18,0.51,0.18c0.215,0,0.416-0.063,0.604-0.19
			s0.329-0.291,0.424-0.492v-2.827h0.976v4.2h-0.871l-0.104-0.518c-0.056,0.075-0.126,0.148-0.214,0.223
			c-0.088,0.071-0.187,0.137-0.293,0.193s-0.228,0.104-0.354,0.139c-0.131,0.035-0.267,0.054-0.406,0.054
			c-0.445,0-0.793-0.122-1.047-0.367c-0.252-0.245-0.379-0.631-0.379-1.155v-2.769h0.977v2.723H266.664z"/>
		<path d="M247.451,337.861v0.765h-3.369v-0.765H247.451z"/>
		<path d="M249.627,334.41c0-0.155,0.053-0.292,0.157-0.409s0.255-0.177,0.45-0.177s0.345,0.06,0.449,0.177s0.157,0.254,0.157,0.409
			c0,0.154-0.053,0.291-0.157,0.408s-0.254,0.177-0.449,0.177s-0.346-0.06-0.45-0.177S249.627,334.564,249.627,334.41z
			 M249.627,336.961c0-0.154,0.053-0.292,0.157-0.409c0.104-0.116,0.255-0.177,0.45-0.177s0.345,0.061,0.449,0.177
			c0.104,0.117,0.157,0.255,0.157,0.409s-0.053,0.291-0.157,0.408s-0.254,0.177-0.449,0.177s-0.346-0.06-0.45-0.177
			S249.627,337.115,249.627,336.961z"/>
		<path d="M256.386,337.861v0.765h-3.368v-0.765H256.386z"/>
		<path d="M259.754,337.861v0.765h-3.368v-0.765H259.754z"/>
		<path d="M263.123,337.861v0.765h-3.369v-0.765H263.123z"/>
		<path d="M266.491,337.861v0.765h-3.368v-0.765H266.491z"/>
		<path d="M269.859,337.861v0.765h-3.368v-0.765H269.859z"/>
	</g>
	<g>
		<g>
			<g>
				<rect x="242.859" y="346.25" width="3" height="3"/>
			</g>
		</g>
		<g>
			<g>
				<path d="M260.859,343.25v1.5h-1.5v1.5h1.5v6h1.5v1.5h-1.5v1.5h1.5h1.5v-3h4.5v1.5h1.5v-1.5v-9H260.859z M268.359,350.75h-6v-6h6
					V350.75z"/>
			</g>
		</g>
		<g>
			<g>
				<rect x="263.859" y="346.25" width="3" height="3"/>
			</g>
		</g>
		<g>
			<g>
				<rect x="242.859" y="367.25" width="3" height="3"/>
			</g>
		</g>
		<g>
			<g>
				<rect x="253.359" y="371.75" width="1.5" height="1.5"/>
			</g>
		</g>
		<g>
			<g>
				<rect x="268.359" y="361.25" width="1.5" height="1.5"/>
			</g>
		</g>
		<g>
			<g>
				<rect x="239.859" y="361.25" width="1.5" height="1.5"/>
			</g>
		</g>
		<g>
			<g>
				<rect x="239.859" y="353.75" width="1.5" height="1.5"/>
			</g>
		</g>
		<g>
			<g>
				<polygon points="256.359,344.75 256.359,346.25 253.359,346.25 253.359,347.75 257.859,347.75 257.859,346.25 257.859,344.75 
									"/>
			</g>
		</g>
		<g>
			<g>
				<path d="M268.359,355.25v1.5h-3v1.5h-4.5v-1.5h-1.5v1.5h-3v1.5h4.5v1.5h-3h-1.5v-1.5h-1.5v1.5h-1.5v-1.5h-1.5v1.5h-1.5v1.5h3
					v1.5h1.5v-1.5h3v1.5h-1.5v1.5h1.5v3h1.5v1.5h1.5v-1.5h4.5v-3h1.5v-1.5h-1.5v-3h-3v-1.5h3v1.5h1.5v-1.5h1.5v-1.5h1.5v-1.5v-1.5
					H268.359z M263.859,362.75v4.5h-4.5v-4.5H263.859z"/>
			</g>
		</g>
		<g>
			<g>
				<polygon points="259.359,352.25 257.859,352.25 257.859,353.75 256.359,353.75 256.359,355.25 256.359,356.75 257.859,356.75 
					257.859,355.25 259.359,355.25 259.359,353.75 260.859,353.75 260.859,352.25 				"/>
			</g>
		</g>
		<g>
			<g>
				<rect x="256.359" y="371.75" width="3" height="1.5"/>
			</g>
		</g>
		<g>
			<g>
				<rect x="251.859" y="344.75" width="1.5" height="1.5"/>
			</g>
		</g>
		<g>
			<g>
				<rect x="263.859" y="355.25" width="1.5" height="1.5"/>
			</g>
		</g>
		<g>
			<g>
				<path d="M248.859,371.75v-6h1.5v-1.5v-1.5h-1.5v1.5h-4.5v-1.5h-1.5h-1.5v1.5h-1.5v9h9h3v-1.5H248.859z M247.359,371.75h-6v-6h6
					V371.75z"/>
			</g>
		</g>
		<g>
			<g>
				<path d="M250.359,343.25h-1.5h-9v9h1.5v1.5h1.5v-1.5h1.5v1.5h1.5v-1.5h3v-3h1.5v-1.5h-1.5v-3h1.5h1.5v-1.5H250.359z
					 M247.359,350.75h-6v-6h6V350.75z"/>
			</g>
		</g>
		<g>
			<g>
				<rect x="254.859" y="343.25" width="1.5" height="1.5"/>
			</g>
		</g>
		<g>
			<g>
				<path d="M257.859,352.25v-1.5h-1.5v-1.5h-1.5v1.5h-3v-1.5h-1.5v1.5v1.5h1.5v3h-4.5v-1.5h-1.5v1.5h-4.5v1.5h3v1.5h-4.5v1.5h4.5
					v1.5h1.5v-1.5h1.5v1.5h1.5v-1.5h3v-1.5h-1.5v-1.5h1.5h1.5v1.5h1.5h1.5v-1.5h-1.5v-1.5h-1.5v-3H257.859z M248.859,358.25h-3v-1.5
					h3V358.25z"/>
			</g>
		</g>
		<g>
			<g>
				<polygon points="253.359,367.25 253.359,365.75 253.359,364.25 251.859,364.25 251.859,365.75 250.359,365.75 250.359,367.25 
					251.859,367.25 251.859,368.75 250.359,368.75 250.359,370.25 253.359,370.25 253.359,368.75 254.859,368.75 254.859,367.25 
									"/>
			</g>
		</g>
		<g>
			<g>
				<polygon points="266.859,370.25 266.859,368.75 265.359,368.75 265.359,370.25 260.859,370.25 260.859,371.75 263.859,371.75 
					263.859,373.25 265.359,373.25 265.359,371.75 268.359,371.75 268.359,373.25 269.859,373.25 269.859,371.75 269.859,370.25 
									"/>
			</g>
		</g>
	</g>
	<g id="Layer_2_1_">
		<path d="M63.188,346.501c-1.837,0-3.326,1.489-3.326,3.326c0,0.823,0.3,1.579,0.796,2.159c0,0,1.614,2.258,2.024,2.682
			c0,0,0.439,0.609,0.92,0l2.077-2.639c0.519-0.586,0.834-1.357,0.834-2.202C66.513,347.99,65.024,346.501,63.188,346.501z
			 M63.188,351.823c-1.157,0-2.095-0.938-2.095-2.095c0-1.158,0.938-2.096,2.095-2.096s2.095,0.938,2.095,2.096
			C65.282,350.885,64.344,351.823,63.188,351.823z"/>
	</g>
	<polygon fill="none" stroke="#000000" stroke-miterlimit="10" points="34.488,348.04 58.421,334.668 69.653,344.654 66.31,355.66 
		43.446,358.334 	"/>
	<polygon points="30.141,302.604 226.643,279.625 269.941,137.026 269.938,111.99 265.384,110.608 217.412,268.584 30.225,290.475 	
		"/>
	<g id="Layer_2_2_">
		<path d="M153.65,95.878c-35.715,0-64.672,28.957-64.672,64.673c0,16.025,5.829,30.703,15.484,42.001
			c0,0,31.387,43.88,39.362,52.12c0,0,8.535,11.85,17.896,0l40.375-51.286c10.094-11.393,16.217-26.411,16.217-42.835
			C218.312,124.835,189.366,95.878,153.65,95.878z M153.65,199.362c-22.5,0-40.729-18.247-40.729-40.729
			c0-22.5,18.228-40.729,40.729-40.729c22.49,0,40.729,18.228,40.729,40.729C194.379,181.115,176.143,199.362,153.65,199.362z"/>
	</g>
</g>
</svg>
