<?xml version="1.0" encoding="utf-8"?>
<!-- Generator: Adobe Illustrator 16.0.0, SVG Export Plug-In . SVG Version: 6.00 Build 0)  -->
<!DOCTYPE svg PUBLIC "-//W3C//DTD SVG 1.1//EN" "http://www.w3.org/Graphics/SVG/1.1/DTD/svg11.dtd">
<svg version="1.1" xmlns="http://www.w3.org/2000/svg" xmlns:xlink="http://www.w3.org/1999/xlink" x="0px" y="0px" width="100px"
	 height="100px" viewBox="0 0 100 100" enable-background="new 0 0 100 100" xml:space="preserve">
<g id="Layer_1">
</g>
<g id="Layer_2">
	<path d="M43.869,15.946c-13.379,0-24.224,10.846-24.224,24.223c0,6.004,2.182,11.498,5.801,15.73c0,0,11.755,16.435,14.744,19.522
		c0,0,3.195,4.436,6.7,0l15.126-19.207c3.78-4.273,6.076-9.891,6.076-16.045C68.092,26.792,57.246,15.946,43.869,15.946z
		 M43.869,54.706c-8.428,0-15.256-6.832-15.256-15.258c0-8.424,6.829-15.256,15.256-15.256c8.424,0,15.255,6.832,15.255,15.256
		C59.124,47.875,52.293,54.706,43.869,54.706z"/>
</g>
</svg>
