<?xml version="1.0" encoding="utf-8"?>
<!-- Generator: Adobe Illustrator 16.0.0, SVG Export Plug-In . SVG Version: 6.00 Build 0)  -->
<!DOCTYPE svg PUBLIC "-//W3C//DTD SVG 1.1//EN" "http://www.w3.org/Graphics/SVG/1.1/DTD/svg11.dtd">
<svg version="1.1" id="Layer_1" xmlns="http://www.w3.org/2000/svg" xmlns:xlink="http://www.w3.org/1999/xlink" x="0px" y="0px"
	 width="370.111px" height="77.334px" viewBox="0 0 370.111 77.334" enable-background="new 0 0 370.111 77.334"
	 xml:space="preserve">
<g id="Layer_1_1_" display="none">
	
		<g id="svg2" xmlns:dc="http://purl.org/dc/elements/1.1/" xmlns:cc="http://creativecommons.org/ns#" xmlns:rdf="http://www.w3.org/1999/02/22-rdf-syntax-ns#" xmlns:svg="http://www.w3.org/2000/svg" xmlns:sodipodi="http://sodipodi.sourceforge.net/DTD/sodipodi-0.dtd" xmlns:inkscape="http://www.inkscape.org/namespaces/inkscape" sodipodi:docname="earth.ai" display="inline">
		
			<sodipodi:namedview  guidetolerance="10" gridtolerance="10" objecttolerance="10" bordercolor="#666666" pagecolor="#ffffff" borderopacity="1" id="namedview4" inkscape:window-height="480" inkscape:pageshadow="2" inkscape:pageopacity="0" inkscape:window-width="640">
			</sodipodi:namedview>
		<g id="g10" transform="matrix(1.3333333,0,0,-1.3333333,0,77.334)" inkscape:label="earth" inkscape:groupmode="layer">
			<g id="g12">
				<g>
					<g>
						<g>
							<defs>
								<rect id="SVGID_1_" x="-36.087" y="-39.742" width="124.842" height="137.482"/>
							</defs>
							<clipPath id="SVGID_2_">
								<use xlink:href="#SVGID_1_"  overflow="visible"/>
							</clipPath>
							<g id="g14" clip-path="url(#SVGID_2_)">
								<g id="g20" transform="translate(19.084,9.1504)">
									<path id="path22" fill="#FFFFFF" d="M0,0l-1.482,1.928l0.223,1.037h0.963l-0.205,1.062l0.279,1.384L0,6.447l0.838,0.872
										c0,0,1.904,0.76,1.682,3.427c0,0,1.63,2.224,1.26,3.409c-0.371,1.185-2.604,1.113-2.604,1.113l-3.695,1.556
										c0,0-0.296,1.556-1.334,1.704c-1.038,0.149-1.334-0.593-1.779,0c-0.445,0.593-1.06,1.483-2.234,1.557
										c-1.175,0.073-2.657,1.037-2.657,1.037s-0.222,0.815-1.482,0.518c0,0-0.815,0.816-0.445,2.446c0,0-0.073,0.889-1.185,0.519
										c0,0-0.889,0.963-1.186,0.963s-0.741,2.816,0.593,4.076c0,0,1.26,1.482,2.668,0.593c0,0-0.074-1.408,0.148-2.075
										c0.222-0.667,0.667,0.963,0.667,0.963l0.074,2.075c0,0,0.963,0.445,1.779,1.186c0.815,0.741,0.518,1.704,1.63,2.446
										c1.112,0.74,1.334,0,1.334,0l0.074,1.259h1.038l2.519,1.112c0,0-1.186-0.074-1.63,0.593l3.186,1.704v0.963l-0.218,2.001
										l-0.745-0.889l-0.148,0.889l-1.408,0.181h-0.519l-1.186-0.551l-0.074-0.741l-1.334-0.593l-0.667,0.667l0.519,0.667
										l0.519,0.551l1.381,1.87c0,0-9.161-5.138-11.829-14.228c0,0-0.15-2.866-0.223-3.904c-0.075-1.037,0.815-2.001,0.815-2.001
										h0.815l0.296-0.741l0.667-0.222l0.371-0.222l0.222-0.578l0.296-1.053l0.668-0.148l0.37-0.667l0.445-0.074l-0.148,0.593
										h0.592l0.222-0.519l-0.666-0.519l-0.223-0.518l-0.074-1.186l0.074-0.888l0.075-0.817l-0.667-0.371l0.148-0.814l0.074-0.519
										v-0.817l-0.371-0.148l2.668-3.631l0.815-0.296l0.519-0.075l0.815-0.296l0.667-1.259c0,0,2.149-4.743,2.446-5.41
										C-4.446,2.521-1.333-0.222,0,0"/>
								</g>
								<g id="g24" transform="translate(49.0361,35.6699)">
									<path id="path26" fill="#FFFFFF" d="M0,0c-2.295,2.297-4.223,6.744-4.223,6.744c1.326-1.213,4.15-5.978,4.15-5.978
										l0.445,2.05V4.15l-0.89,1.63l-0.295-0.222l-0.743,1.63L0.21,6.071c-0.359,0.226-0.743,1.593-0.976,2.002
										C-1.135,8.719-1.543,9.34-1.982,9.939c-2.919,3.978-6.935,7.439-11.49,9.392c-0.779,0.333-1.573,0.571-2.414,0.797
										c-0.661,0.178-1.329,0.327-2.003,0.449C-19.477,20.865-21.091,21-22.704,21c-6.202,0-11.326-2.718-11.326-2.718
										c3.881-1.859,6.135-0.31,6.135-0.31s1.366-2.846,3.94-1.762c2.575,1.085,6.234,1.262,6.234,1.262
										c1.336-0.37,2.533-0.528,3.571-0.569l-0.302-1.119l-1.63,0.181l-1.037-1.811l-1.112-0.519c0,0,1.408-0.963,1.26-1.482
										c-0.148-0.519-1.925-0.667-1.925-0.667s-0.297-1.852,0.665-2.075c0.964-0.222,2.446,0.519,2.446,0.519
										s0.371,1.408,1.185,1.704c0.816,0.297,2.298,0.519,2.298,0.519l2.149-0.815c0,0,0.962-1.704,1.258-1.408
										c0.297,0.297-0.296,1.408-0.296,1.408s2.817-1.334,3.483-1.556c0.666-0.222,0.741-2.001,0.741-2.001L-7.93,8.67
										l-0.592-1.334l-3.409,1.26c0,0,0.816,1.185-0.297,1.185c-1.112,0-5.039-1.037-5.41-1.185
										c-0.371-0.149-0.445-2.223-0.964-2.116c-0.518,0.108-2.445-2.998-2.445-2.998s0.519-1.259,0.593-2.964
										c0.073-1.705,3.482-4.298,5.039-3.706c1.556,0.594,4.373,0.075,5.262,0c0.888-0.073,0.148-1.556,1.11-3.408
										c0.965-1.853,0.223-3.187,0.297-5.187c0.074-2.002,0.223-6.3,0.223-6.3h1.185l1.556,1.037l1.556,1.63l1.112,1.483v0.965
										L-2-12.154l1.111,1.112v2.297l0.149,1.927l0.814,2.445l0.667,1.557v1.111v2.471L0,0z"/>
								</g>
							</g>
						</g>
					</g>
				</g>
			</g>
		</g>
	</g>
	<g id="Layer_5" display="inline">
		<g>
			<g>
				<path fill="#FFFFFF" d="M102.034,59.293c-5.848,0-10.578-2.024-14.06-6.019c-3.464-3.974-5.22-9.369-5.22-16.042
					c0-6.597,1.771-11.97,5.264-15.97c3.509-4.021,8.225-6.06,14.016-6.06c4.686,0,8.676,1.229,11.86,3.652
					c3.199,2.434,5.209,5.794,5.976,9.989c0.026,0.146-0.014,0.296-0.108,0.41c-0.094,0.114-0.235,0.18-0.384,0.18h-5.255
					c-0.218,0-0.411-0.141-0.477-0.349c-0.843-2.657-2.258-4.7-4.204-6.073c-1.954-1.377-4.446-2.076-7.408-2.076
					c-3.918,0-7.086,1.472-9.416,4.376c-2.356,2.937-3.551,6.948-3.551,11.92c0,5.05,1.186,9.083,3.522,11.992
					c2.31,2.875,5.497,4.334,9.474,4.334c3.565,0,6.479-1.039,8.66-3.086c2.172-2.041,3.273-4.761,3.273-8.078v-0.498h-11.158
					c-0.276,0-0.5-0.225-0.5-0.5v-4.504c0-0.276,0.224-0.5,0.5-0.5h16.798c0.276,0,0.5,0.224,0.5,0.5v5.019
					c0,5.192-1.675,9.435-4.978,12.608C111.861,57.688,107.445,59.293,102.034,59.293z"/>
				<path fill="#FFFFFF" d="M102.034,15.705c4.595,0,8.447,1.183,11.558,3.55c3.111,2.367,5.04,5.594,5.786,9.681h-5.255
					c-0.881-2.775-2.345-4.886-4.393-6.331c-2.049-1.444-4.614-2.167-7.696-2.167c-4.097,0-7.365,1.521-9.806,4.563
					c-2.44,3.042-3.661,7.12-3.661,12.233c0,5.19,1.211,9.292,3.633,12.305c2.421,3.015,5.709,4.521,9.863,4.521
					c3.714,0,6.714-1.074,9.002-3.223c2.287-2.148,3.432-4.962,3.432-8.441v-0.998h-11.658v-4.503h16.798v5.019
					c0,5.074-1.608,9.156-4.824,12.248c-3.216,3.089-7.476,4.634-12.778,4.634c-5.724,0-10.284-1.946-13.683-5.846
					c-3.397-3.897-5.097-9.136-5.097-15.713c0-6.502,1.713-11.715,5.141-15.641C91.821,17.667,96.368,15.705,102.034,15.705
					 M102.034,14.705c-5.941,0-10.784,2.097-14.393,6.231c-3.574,4.094-5.387,9.578-5.387,16.299c0,6.795,1.798,12.303,5.343,16.37
					c3.581,4.106,8.438,6.188,14.437,6.188c5.545,0,10.077-1.651,13.471-4.912c3.405-3.272,5.132-7.636,5.132-12.97v-5.019
					c0-0.552-0.447-1-1-1h-16.798c-0.553,0-1,0.448-1,1v4.505c0,0.553,0.447,1,1,1h10.658c0,3.219-1.02,5.74-3.116,7.711
					c-2.114,1.983-4.835,2.949-8.317,2.949c-3.871,0-6.843-1.355-9.084-4.146c-2.264-2.817-3.412-6.746-3.412-11.679
					c0-4.856,1.158-8.761,3.441-11.607c2.262-2.819,5.214-4.189,9.025-4.189c2.856,0,5.252,0.668,7.12,1.985
					c1.855,1.309,3.206,3.266,4.016,5.816c0.132,0.415,0.518,0.697,0.953,0.697h5.255c0.297,0,0.578-0.132,0.768-0.359
					c0.19-0.228,0.27-0.528,0.216-0.82c-0.789-4.321-2.862-7.786-6.164-10.297C110.924,15.968,106.832,14.705,102.034,14.705
					L102.034,14.705z"/>
			</g>
			<g>
				<path fill="#FFFFFF" d="M136.544,58.323c-0.276,0-0.5-0.225-0.5-0.5V23.021c-1.975,1.415-3.62,2.6-4.935,3.554
					c-1.39,1.008-3.146,2.273-5.272,3.795c-0.087,0.062-0.188,0.093-0.291,0.093c-0.078,0-0.156-0.018-0.229-0.055
					c-0.167-0.086-0.271-0.257-0.271-0.445v-5.418c0-0.162,0.078-0.314,0.21-0.408c2.221-1.577,4.058-2.888,5.512-3.933
					c1.455-1.046,3.293-2.358,5.515-3.938c0.085-0.06,0.187-0.092,0.29-0.092h5.141c0.276,0,0.5,0.224,0.5,0.5v41.149
					c0,0.275-0.224,0.5-0.5,0.5H136.544z"/>
				<path fill="#FFFFFF" d="M141.713,16.674v41.149h-5.169c0-3.422,0-6.479,0-9.168c0-2.69,0-5.543,0-8.555c0-3.015,0-5.867,0-8.557
					s0-5.746,0-9.168h-0.46c-2.124,1.521-3.881,2.785-5.269,3.792c-1.389,1.008-3.145,2.272-5.27,3.793v-5.418
					c2.221-1.578,4.059-2.889,5.514-3.935c1.454-1.045,3.292-2.357,5.513-3.936L141.713,16.674 M141.713,15.674h-5.141
					c-0.208,0-0.41,0.064-0.579,0.185c-2.223,1.58-4.062,2.892-5.518,3.938c-1.453,1.045-3.29,2.355-5.509,3.932
					c-0.264,0.188-0.421,0.492-0.421,0.815v5.418c0,0.375,0.21,0.718,0.543,0.889c0.144,0.074,0.301,0.111,0.457,0.111
					c0.205,0,0.409-0.063,0.582-0.187c2.127-1.522,3.885-2.788,5.274-3.796c1.135-0.823,2.516-1.818,4.142-2.985v7.551v8.556v8.556
					v9.168c0,0.553,0.447,1,1,1h5.169c0.553,0,1-0.447,1-1v-41.15C142.713,16.122,142.266,15.674,141.713,15.674L141.713,15.674z"/>
			</g>
			<g>
				<path fill="#FFFFFF" d="M166.659,59.293c-4.475,0-8.204-1.108-11.085-3.296c-2.91-2.21-4.526-5.199-4.805-8.889
					c-0.01-0.14,0.038-0.274,0.133-0.377c0.095-0.104,0.228-0.16,0.366-0.16h5.227c0.247,0,0.457,0.182,0.494,0.426
					c0.307,2.021,1.334,3.589,3.143,4.792c1.821,1.212,4.182,1.827,7.016,1.827c2.674,0,4.907-0.645,6.639-1.914
					c1.708-1.252,2.538-2.775,2.538-4.658c0-1.611-0.601-2.915-1.837-3.984c-1.273-1.103-3.319-2.007-6.081-2.688l-5.317-1.369
					c-3.824-0.969-6.657-2.382-8.418-4.2c-1.789-1.846-2.696-4.328-2.696-7.377c0-3.641,1.42-6.626,4.222-8.874
					c2.768-2.22,6.443-3.346,10.923-3.346c4.097,0,7.582,1.111,10.359,3.301c2.803,2.211,4.335,5.086,4.555,8.545
					c0.009,0.138-0.04,0.273-0.135,0.374c-0.094,0.101-0.227,0.158-0.364,0.158h-5.197c-0.243,0-0.451-0.175-0.493-0.415
					c-0.344-1.994-1.27-3.507-2.828-4.626c-1.562-1.121-3.604-1.688-6.068-1.688c-2.634,0-4.77,0.6-6.348,1.782
					c-1.556,1.165-2.312,2.676-2.312,4.619c0,1.472,0.546,2.632,1.668,3.548c1.172,0.957,3.17,1.797,5.938,2.497l4.34,1.142
					c4.347,1.079,7.528,2.56,9.45,4.4c1.96,1.877,2.954,4.428,2.954,7.576c0,3.924-1.469,7.092-4.365,9.415
					C175.408,58.129,171.501,59.293,166.659,59.293z"/>
				<path fill="#FFFFFF" d="M167.119,15.705c4.001,0,7.351,1.065,10.05,3.194c2.699,2.129,4.154,4.857,4.365,8.184h-5.197
					c-0.364-2.11-1.374-3.759-3.03-4.948c-1.655-1.188-3.775-1.782-6.359-1.782c-2.757,0-4.973,0.627-6.647,1.882
					c-1.676,1.254-2.513,2.928-2.513,5.019c0,1.616,0.617,2.928,1.852,3.936c1.235,1.008,3.278,1.873,6.131,2.595l4.336,1.141
					c4.288,1.065,7.365,2.491,9.231,4.278c1.866,1.787,2.8,4.191,2.8,7.215c0,3.783-1.393,6.791-4.178,9.025
					c-2.785,2.231-6.552,3.351-11.3,3.351c-4.384,0-7.978-1.063-10.782-3.194c-2.805-2.129-4.341-4.971-4.608-8.524
					c1.053,0,1.924,0,2.613,0c0.688,0,1.56,0,2.613,0c0.325,2.147,1.444,3.858,3.359,5.133c1.914,1.272,4.345,1.911,7.293,1.911
					c2.795,0,5.106-0.67,6.935-2.012c1.828-1.34,2.742-3.026,2.742-5.062c0-1.749-0.67-3.203-2.01-4.362
					c-1.34-1.158-3.437-2.092-6.288-2.795l-5.312-1.369c-3.752-0.95-6.48-2.305-8.184-4.063c-1.704-1.758-2.556-4.102-2.556-7.029
					c0-3.498,1.345-6.326,4.034-8.484C159.198,16.784,162.735,15.705,167.119,15.705 M167.119,14.705
					c-4.597,0-8.377,1.163-11.236,3.456c-2.925,2.348-4.408,5.464-4.408,9.264c0,3.183,0.955,5.783,2.838,7.725
					c1.825,1.886,4.738,3.345,8.656,4.337l5.309,1.367c2.693,0.664,4.67,1.533,5.883,2.582c1.12,0.97,1.664,2.147,1.664,3.605
					c0,1.713-0.764,3.104-2.333,4.255c-1.645,1.206-3.778,1.817-6.344,1.817c-2.734,0-5.001-0.588-6.738-1.743
					c-1.685-1.12-2.642-2.576-2.926-4.45c-0.073-0.488-0.494-0.852-0.988-0.852h-2.613h-2.613c-0.278,0-0.544,0.115-0.733,0.32
					c-0.189,0.203-0.284,0.479-0.264,0.754c0.289,3.838,1.971,6.948,5.001,9.248c2.969,2.254,6.8,3.397,11.387,3.397
					c4.959,0,8.971-1.201,11.926-3.569c3.021-2.425,4.552-5.724,4.552-9.807c0-3.292-1.046-5.962-3.108-7.937
					c-2.014-1.928-5.181-3.408-9.682-4.526l-4.322-1.137c-2.705-0.685-4.638-1.492-5.754-2.402
					c-0.998-0.814-1.483-1.849-1.483-3.161c0-1.774,0.69-3.154,2.112-4.218c1.49-1.117,3.524-1.683,6.048-1.683
					c2.358,0,4.302,0.537,5.776,1.595c1.447,1.039,2.307,2.447,2.628,4.305c0.083,0.48,0.499,0.83,0.985,0.83h5.197
					c0.276,0,0.54-0.114,0.729-0.315c0.188-0.202,0.286-0.472,0.269-0.748c-0.229-3.606-1.825-6.603-4.744-8.906
					C174.921,15.852,171.331,14.705,167.119,14.705L167.119,14.705z"/>
			</g>
			<g>
				<path fill="#FFFFFF" d="M192.698,58.608c-1.146,0-2.149-0.418-2.979-1.243c-0.831-0.824-1.253-1.822-1.253-2.964
					c0-1.161,0.424-2.166,1.256-2.981c0.83-0.813,1.831-1.226,2.979-1.226c1.164,0,2.172,0.412,2.992,1.228
					c0.822,0.818,1.24,1.82,1.24,2.979c0,1.14-0.416,2.136-1.236,2.961C194.872,58.188,193.864,58.608,192.698,58.608z"/>
				<path fill="#FFFFFF" d="M192.698,50.694c1.033,0,1.914,0.361,2.643,1.082c0.727,0.724,1.092,1.599,1.092,2.625
					c0,1.008-0.365,1.877-1.092,2.607c-0.729,0.731-1.607,1.1-2.643,1.1c-1.016,0-1.891-0.366-2.627-1.1
					c-0.737-0.73-1.105-1.602-1.105-2.607c0-1.026,0.368-1.901,1.105-2.625C190.808,51.056,191.685,50.694,192.698,50.694
					 M192.698,49.694c-1.281,0-2.4,0.461-3.327,1.369c-0.933,0.914-1.405,2.037-1.405,3.338c0,1.279,0.473,2.396,1.401,3.317
					c0.927,0.923,2.048,1.39,3.331,1.39c1.304,0,2.431-0.469,3.352-1.394c0.917-0.924,1.383-2.039,1.383-3.313
					c0-1.297-0.467-2.42-1.387-3.334C195.125,50.156,193.999,49.694,192.698,49.694L192.698,49.694z"/>
			</g>
			<g>
				<path fill="#FFFFFF" d="M241.249,58.323c-0.275,0-0.5-0.225-0.5-0.5V28.061l-12.448,29.67c-0.077,0.187-0.26,0.308-0.461,0.308
					h-4.364c-0.201,0-0.384-0.121-0.461-0.308l-12.449-29.67v29.763c0,0.276-0.224,0.5-0.5,0.5h-4.822c-0.276,0-0.5-0.224-0.5-0.5
					v-41.15c0-0.276,0.224-0.5,0.5-0.5h6.001c0.2,0,0.384,0.122,0.462,0.308l13.953,33.492l13.951-33.492
					c0.078-0.186,0.262-0.308,0.464-0.308h6.001c0.275,0,0.5,0.224,0.5,0.5v41.149c0,0.275-0.225,0.5-0.5,0.5H241.249z"/>
				<path fill="#FFFFFF" d="M246.073,16.674v41.149c-0.977,0-1.78,0-2.412,0c-0.633,0-1.436,0-2.412,0V26.398h-0.346l-13.063,31.14
					h-4.364l-13.063-31.14h-0.347v31.425h-4.822V16.674h6.001l14.187,34.05h0.459l14.187-34.05H246.073 M246.073,15.674h-6.002
					c-0.402,0-0.768,0.243-0.922,0.615l-13.492,32.384l-13.492-32.384c-0.155-0.373-0.52-0.615-0.923-0.615h-6.001
					c-0.553,0-1,0.448-1,1v41.149c0,0.553,0.447,1,1,1h4.824c0.553,0,1-0.447,1-1V30.544l11.485,27.38
					c0.155,0.372,0.521,0.613,0.923,0.613h4.364c0.402,0,0.769-0.241,0.922-0.613l11.487-27.38v27.279c0,0.553,0.445,1,1,1h2.412
					h2.41c0.555,0,1-0.447,1-1V16.674C247.073,16.122,246.626,15.674,246.073,15.674L246.073,15.674z"/>
			</g>
			<g>
				<path fill="#FFFFFF" d="M263.151,58.865c-3.11,0-5.734-0.869-7.799-2.582c-2.094-1.737-3.152-4.116-3.152-7.072
					c0-5.914,3.955-9.144,11.756-9.596l8.459-0.513v-2.324c0-3.617-2.128-5.375-6.506-5.375c-1.764,0-3.239,0.315-4.385,0.938
					c-1.111,0.604-1.803,1.428-2.111,2.52c-0.062,0.215-0.258,0.364-0.48,0.364h-4.996c-0.145,0-0.28-0.062-0.377-0.17
					c-0.095-0.108-0.139-0.252-0.119-0.395c0.345-2.609,1.711-4.728,4.065-6.296c2.312-1.542,5.198-2.323,8.575-2.323
					c3.88,0,6.924,0.959,9.048,2.85c2.142,1.906,3.226,4.56,3.226,7.888v21.045c0,0.276-0.224,0.5-0.5,0.5h-4.709
					c-0.274,0-0.5-0.224-0.5-0.5v-3.565c-0.977,1.367-2.213,2.454-3.688,3.237C267.245,58.403,265.292,58.865,263.151,58.865z
					 M264.62,44.577c-4.244,0.285-6.309,1.765-6.309,4.521c0,1.402,0.516,2.465,1.576,3.245c1.092,0.808,2.5,1.216,4.184,1.216
					c2.408,0,4.429-0.701,6.002-2.086c1.576-1.387,2.342-3.06,2.342-5.113v-2.291L264.62,44.577z"/>
				<path fill="#FFFFFF" d="M266.081,26.541c3.771,0,6.677,0.908,8.715,2.724c2.039,1.815,3.059,4.32,3.059,7.514v21.045h-4.709
					V53.29h-0.459c-0.996,1.636-2.315,2.891-3.963,3.766c-1.646,0.873-3.504,1.312-5.57,1.312c-3.006,0-5.5-0.822-7.479-2.469
					c-1.979-1.645-2.972-3.873-2.972-6.688c0-5.627,3.762-8.658,11.283-9.097l8.932-0.541v-2.795c0-3.917-2.335-5.875-7.006-5.875
					c-1.857,0-3.398,0.333-4.623,0.998c-1.227,0.666-2.012,1.606-2.354,2.823h-4.996c0.324-2.471,1.606-4.453,3.849-5.946
					C260.022,27.287,262.789,26.541,266.081,26.541 M264.071,54.06c2.546,0,4.656-0.735,6.332-2.211
					c1.675-1.473,2.512-3.303,2.512-5.488v-2.822l-8.327,0.542c-4.519,0.305-6.776,1.979-6.776,5.021c0,1.56,0.595,2.774,1.78,3.648
					C260.778,53.623,262.271,54.06,264.071,54.06 M266.081,25.541c-3.479,0-6.456,0.81-8.854,2.407
					c-2.479,1.652-3.922,3.889-4.283,6.647c-0.039,0.286,0.05,0.573,0.238,0.79c0.189,0.217,0.465,0.341,0.752,0.341h4.996
					c0.446,0,0.84-0.297,0.963-0.728c0.271-0.956,0.883-1.681,1.869-2.217c1.07-0.582,2.467-0.877,4.146-0.877
					c5.383,0,6.006,2.782,6.006,4.875v1.854l-7.99,0.484c-5.573,0.323-12.225,2.338-12.225,10.094c0,3.11,1.12,5.62,3.333,7.457
					c2.154,1.79,4.888,2.697,8.117,2.697c2.224,0,4.254-0.48,6.039-1.429c1.119-0.596,2.106-1.354,2.955-2.272v2.159
					c0,0.553,0.446,1,1,1h4.709c0.554,0,1-0.447,1-1V36.778c0-3.477-1.143-6.256-3.395-8.261
					C273.243,26.542,270.088,25.541,266.081,25.541L266.081,25.541z M264.071,53.06c-1.574,0-2.883-0.377-3.887-1.117
					c-0.925-0.68-1.373-1.609-1.373-2.844c0-1.559,0.604-3.67,5.844-4.021l7.26-0.474v1.756c0,1.902-0.711,3.453-2.172,4.738
					C268.242,52.417,266.388,53.06,264.071,53.06L264.071,53.06z"/>
			</g>
			<g>
				<path fill="#FFFFFF" d="M285.517,68.589c-0.275,0-0.5-0.224-0.5-0.5V27.083c0-0.276,0.225-0.5,0.5-0.5h4.709
					c0.275,0,0.5,0.224,0.5,0.5v4.112c0.985-1.478,2.271-2.679,3.83-3.576c1.82-1.047,3.853-1.578,6.035-1.578
					c4.081,0,7.396,1.52,9.851,4.518c2.428,2.969,3.657,6.971,3.657,11.895c0,4.904-1.229,8.9-3.656,11.879
					c-2.454,3.008-5.77,4.533-9.852,4.533c-2.273,0-4.324-0.48-6.094-1.43c-1.487-0.795-2.676-1.862-3.543-3.181v13.832
					c0,0.276-0.225,0.5-0.5,0.5L285.517,68.589L285.517,68.589z M299.442,31.461c-2.659,0-4.711,0.951-6.271,2.906
					c-1.566,1.962-2.359,4.683-2.359,8.086c0,3.385,0.793,6.101,2.36,8.071c1.562,1.966,3.603,2.92,6.241,2.92
					c2.716,0,4.771-0.937,6.283-2.859c1.521-1.936,2.291-4.672,2.291-8.132c0-3.461-0.771-6.197-2.291-8.132
					C304.185,32.396,302.139,31.461,299.442,31.461z"/>
				<path fill="#FFFFFF" d="M300.591,26.541c3.943,0,7.097,1.445,9.462,4.334c2.363,2.89,3.546,6.749,3.546,11.578
					c0,4.81-1.183,8.664-3.546,11.563c-2.363,2.897-5.519,4.349-9.462,4.349c-2.201,0-4.154-0.456-5.857-1.369
					c-1.702-0.912-2.978-2.177-3.817-3.793h-0.46v14.886h-4.938V27.083h4.709v5.133h0.461c0.994-1.768,2.369-3.155,4.119-4.163
					C296.558,27.044,298.484,26.541,300.591,26.541 M299.413,53.944c2.853,0,5.078-1.019,6.677-3.051
					c1.598-2.035,2.397-4.85,2.397-8.44c0-3.593-0.8-6.407-2.397-8.441c-1.599-2.034-3.812-3.051-6.646-3.051
					c-2.797,0-5.018,1.031-6.662,3.094c-1.646,2.063-2.471,4.862-2.471,8.398c0,3.517,0.822,6.312,2.471,8.384
					S296.638,53.944,299.413,53.944 M300.591,25.541c-2.271,0-4.388,0.553-6.285,1.645c-1.181,0.68-2.211,1.526-3.08,2.529v-2.632
					c0-0.552-0.447-1-1-1h-4.709c-0.554,0-1,0.448-1,1v41.006c0,0.553,0.446,1,1,1h4.938c0.553,0,1-0.447,1-1V55.715
					c0.776,0.854,1.716,1.579,2.81,2.163c1.84,0.986,3.971,1.487,6.327,1.487c4.239,0,7.686-1.587,10.236-4.718
					c2.503-3.068,3.771-7.172,3.771-12.194c0-5.042-1.269-9.15-3.771-12.211C308.272,27.122,304.829,25.541,300.591,25.541
					L300.591,25.541z M299.413,52.944c-2.477,0-4.391-0.895-5.85-2.729c-1.496-1.881-2.254-4.493-2.254-7.762
					c0-3.287,0.758-5.903,2.252-7.774c1.459-1.829,3.383-2.718,5.881-2.718c2.53,0,4.448,0.873,5.859,2.669
					c1.449,1.845,2.186,4.477,2.186,7.823c0,3.346-0.734,5.978-2.186,7.823C303.892,52.071,301.965,52.944,299.413,52.944
					L299.413,52.944z"/>
			</g>
			<g>
				<path fill="#FFFFFF" d="M319.881,58.323c-0.274,0-0.5-0.225-0.5-0.5v-30.74c0-0.276,0.226-0.5,0.5-0.5h4.709
					c0.276,0,0.5,0.224,0.5,0.5v3.202c0.604-1.081,1.544-2.001,2.808-2.748c1.68-0.993,3.608-1.496,5.737-1.496
					c0.412,0,0.857,0.015,1.337,0.044c0.481,0.029,0.879,0.064,1.193,0.103c0.251,0.031,0.439,0.244,0.439,0.496v4.905
					c0,0.158-0.074,0.306-0.201,0.4c-0.087,0.065-0.192,0.1-0.299,0.1c-0.05,0-0.098-0.007-0.144-0.021
					c-0.09-0.026-0.371-0.083-1.255-0.167c-0.692-0.065-1.285-0.098-1.762-0.098c-2.215,0-4.062,0.666-5.491,1.979
					c-1.438,1.32-2.136,2.954-2.136,4.993v19.049c0,0.276-0.226,0.5-0.5,0.5L319.881,58.323L319.881,58.323z"/>
				<path fill="#FFFFFF" d="M333.635,26.541c0.402,0,0.838,0.015,1.309,0.043c0.469,0.028,0.854,0.062,1.163,0.1v4.905
					c-0.191-0.057-0.644-0.118-1.352-0.185c-0.708-0.066-1.312-0.1-1.809-0.1c-2.354,0-4.298,0.704-5.829,2.11
					c-1.532,1.407-2.298,3.194-2.298,5.361v19.049h-4.938c0-4.146,0-7.742,0-10.794c0-3.051,0-6.102,0-9.153
					c0-3.051,0-6.649,0-10.793h4.709v4.562h0.46c0.459-1.501,1.493-2.728,3.103-3.679C329.759,27.016,331.587,26.541,333.635,26.541
					 M333.635,25.541c-2.219,0-4.233,0.526-5.993,1.565c-0.809,0.479-1.491,1.026-2.052,1.639v-1.662c0-0.552-0.447-1-1-1h-4.709
					c-0.553,0-1,0.448-1,1v10.793v9.152v10.795c0,0.553,0.447,1,1,1h4.938c0.553,0,1-0.447,1-1V38.774
					c0-1.892,0.646-3.405,1.975-4.625c1.353-1.243,3.038-1.847,5.152-1.847c0.461,0,1.038,0.032,1.715,0.096
					c0.907,0.085,1.126,0.139,1.16,0.148c0.091,0.025,0.183,0.038,0.273,0.038c0.216,0,0.433-0.069,0.605-0.201
					c0.25-0.189,0.4-0.482,0.4-0.796v-4.905c0-0.505-0.377-0.931-0.878-0.993c-0.334-0.041-0.746-0.076-1.225-0.105
					C334.51,25.556,334.05,25.541,333.635,25.541L333.635,25.541z"/>
			</g>
		</g>
	</g>
</g>
<g id="Layer_3">
	<g>
		<path fill="#FFFFFF" d="M102.342,36.173h17.816v8.842c-0.093,4.348-1.81,7.989-5.155,10.928
			c-3.367,2.916-7.605,4.416-12.713,4.494c-3.939-0.078-7.227-0.914-9.861-2.502c-2.681-1.531-4.628-3.3-5.842-5.309
			c-0.367-0.654-0.699-1.282-0.996-1.878c-0.275-0.616-0.505-1.392-0.688-2.325c-0.344-1.749-0.515-5.107-0.515-10.076
			c0-5.049,0.171-8.427,0.515-10.137c0.367-1.709,0.928-3.09,1.684-4.144c1.213-2.007,3.161-3.796,5.842-5.367
			c2.634-1.589,5.921-2.404,9.861-2.444c4.834,0.04,8.773,1.282,11.82,3.726c3.046,2.464,4.971,5.515,5.772,9.151h-8.052
			c-0.62-1.758-1.744-3.256-3.372-4.494c-1.698-1.178-3.762-1.788-6.194-1.828c-1.789,0.041-3.327,0.349-4.61,0.927
			c-1.308,0.597-2.363,1.344-3.166,2.24c-0.987,0.937-1.641,2.142-1.961,3.615c-0.367,1.554-0.551,4.471-0.551,8.754
			c0,4.281,0.184,7.178,0.551,8.693c0.321,1.513,0.976,2.737,1.963,3.674c0.803,0.896,1.858,1.624,3.167,2.183
			c1.286,0.656,2.823,0.985,4.614,0.985c2.961,0,5.406-0.878,7.334-2.633c1.928-1.674,2.916-3.877,2.961-6.608v-2.271h-10.224
			V36.173z"/>
		<path fill="#FFFFFF" d="M128.33,29.135h6.081v3.279h0.127c2.004-2.444,4.632-3.667,7.883-3.667
			c2.434,0.04,4.555,0.832,6.365,2.376l-4.441,5.376c-1.286-1.036-2.62-1.555-4.003-1.555c-1.559,0-2.892,0.518-4.002,1.552
			c-1.247,1.016-1.891,2.657-1.929,4.926V60.08h-6.081V29.135z"/>
		<path fill="#FFFFFF" d="M149.724,44.577c0-3.266,0.264-5.773,0.789-7.526c0.544-1.712,1.381-3.155,2.51-4.33
			c0.836-1.028,2.004-1.948,3.502-2.759c1.479-0.771,3.376-1.176,5.692-1.215c2.394,0.04,4.33,0.447,5.809,1.222
			c1.458,0.815,2.587,1.739,3.385,2.772c1.203,1.173,2.056,2.614,2.561,4.323c0.484,1.749,0.727,4.253,0.727,7.512
			c0,3.26-0.244,5.743-0.729,7.454c-0.505,1.709-1.361,3.188-2.567,4.441c-0.391,0.457-0.867,0.904-1.431,1.342
			c-0.506,0.496-1.157,0.924-1.955,1.28c-1.479,0.855-3.414,1.304-5.806,1.343c-2.315-0.039-4.212-0.486-5.689-1.343
			c-1.498-0.774-2.665-1.647-3.501-2.622c-1.128-1.253-1.965-2.732-2.509-4.441C149.987,50.321,149.724,47.837,149.724,44.577z
			 M168.618,44.638c0-2.214-0.098-3.828-0.292-4.847c-0.196-0.977-0.595-1.834-1.2-2.572c-0.448-0.699-1.111-1.247-1.988-1.646
			c-0.839-0.418-1.814-0.628-2.925-0.628c-1.034,0-1.99,0.21-2.867,0.628c-0.838,0.399-1.521,0.947-2.047,1.646
			c-0.527,0.738-0.907,1.596-1.14,2.572c-0.235,1.019-0.352,2.612-0.352,4.786c0,2.154,0.117,3.729,0.352,4.727
			c0.233,1.018,0.613,1.915,1.14,2.692c0.527,0.598,1.209,1.128,2.047,1.585c0.877,0.438,1.833,0.659,2.867,0.659
			c1.111,0,2.086-0.222,2.925-0.659c0.877-0.457,1.54-0.987,1.988-1.585c0.605-0.777,1.004-1.675,1.2-2.692
			C168.52,48.308,168.618,46.751,168.618,44.638z"/>
		<path fill="#FFFFFF" d="M182.97,50.63c2.478,2.645,5.677,3.969,9.599,3.969c1.757,0,3.19-0.349,4.303-1.045
			c1.111-0.695,1.669-1.67,1.669-2.921c0-1.112-0.332-1.89-0.994-2.325c-0.685-0.457-1.59-0.707-2.721-0.746l-5.382-0.479
			c-2.553-0.238-4.629-1.111-6.229-2.623c-1.638-1.471-2.476-3.527-2.515-6.171c0.039-3.18,1.139-5.565,3.301-7.155
			c2.103-1.591,4.771-2.386,8.003-2.386c1.402,0,2.657,0.089,3.768,0.268c1.11,0.199,2.152,0.477,3.127,0.834
			c1.869,0.774,3.543,1.817,5.023,3.128l-3.771,4.499c-1.172-0.863-2.41-1.575-3.717-2.138c-1.287-0.5-2.77-0.752-4.445-0.752
			c-1.911,0-3.247,0.348-4.008,1.045c-0.799,0.697-1.199,1.592-1.199,2.686c-0.04,0.697,0.262,1.304,0.906,1.82
			c0.586,0.579,1.617,0.946,3.102,1.105l5.027,0.388c3.16,0.24,5.439,1.216,6.846,2.927c1.307,1.672,1.959,3.791,1.959,6.356
			c-0.039,3.006-1.236,5.323-3.591,6.955c-2.337,1.672-5.324,2.528-8.964,2.567c-4.944,0-9.393-1.849-13.343-5.543L182.97,50.63z"/>
		<path fill="#FFFFFF" d="M212.591,50.63c2.479,2.645,5.678,3.969,9.6,3.969c1.756,0,3.189-0.349,4.302-1.045
			c1.112-0.695,1.67-1.67,1.67-2.921c0-1.112-0.332-1.89-0.995-2.325c-0.684-0.457-1.59-0.707-2.721-0.746l-5.381-0.479
			c-2.553-0.238-4.629-1.111-6.229-2.623c-1.638-1.471-2.476-3.527-2.515-6.171c0.039-3.18,1.14-5.565,3.301-7.155
			c2.104-1.591,4.771-2.386,8.004-2.386c1.4,0,2.657,0.089,3.768,0.268c1.11,0.199,2.152,0.477,3.127,0.834
			c1.869,0.774,3.543,1.817,5.022,3.128l-3.772,4.499c-1.17-0.863-2.408-1.575-3.715-2.138c-1.287-0.5-2.769-0.752-4.447-0.752
			c-1.909,0-3.246,0.348-4.006,1.045c-0.801,0.697-1.199,1.592-1.199,2.686c-0.041,0.697,0.263,1.304,0.906,1.82
			c0.586,0.579,1.618,0.946,3.101,1.105l5.03,0.388c3.158,0.24,5.438,1.216,6.843,2.927c1.307,1.672,1.96,3.791,1.96,6.356
			c-0.039,3.006-1.236,5.323-3.592,6.955c-2.336,1.672-5.324,2.528-8.963,2.567c-4.944,0-9.393-1.849-13.344-5.543L212.591,50.63z"
			/>
		<path fill="#FFFFFF" d="M241.328,29.135h6.083v18.448c0,2.09,0.572,3.723,1.722,4.896c1.13,1.174,2.569,1.762,4.32,1.762
			c1.752,0,3.183-0.588,4.292-1.762c1.129-1.174,1.693-2.807,1.693-4.896V29.135h6.082V60.08h-6.082v-3.31h-0.117
			c-2.002,2.444-4.617,3.666-7.846,3.666c-2.506-0.039-4.771-0.971-6.793-2.797c-2.197-1.783-3.315-4.423-3.354-7.914V29.135z"/>
		<path fill="#FFFFFF" d="M274.476,16.614h6.082v35.507c0,1.412,0.76,2.119,2.282,2.119h2.107v5.84h-2.714
			c-2.217,0-4.045-0.563-5.483-1.692c-1.517-1.147-2.274-3.078-2.274-5.791V16.614z"/>
		<path fill="#FFFFFF" d="M306.296,57.339h-0.117c-0.562,1.053-1.438,1.828-2.625,2.324c-1.168,0.518-2.781,0.773-4.843,0.773
			c-3.385-0.039-5.989-0.953-7.817-2.742c-1.927-1.748-2.89-3.983-2.89-6.705c0-2.604,0.837-4.76,2.509-6.469
			c1.672-1.748,4.125-2.644,7.353-2.684h8.432v-3.265c0.04-2.736-2.032-4.064-6.217-3.985c-1.519,0-2.714,0.16-3.59,0.479
			c-0.914,0.379-1.636,1.02-2.159,1.918l-4.788-3.731c2.313-3.084,5.728-4.585,10.235-4.506c3.812-0.04,6.854,0.696,9.13,2.206
			c2.272,1.55,3.43,4.213,3.469,7.99V60.08h-6.08L306.296,57.339L306.296,57.339z M306.296,46.96h-7.311
			c-3.547,0.08-5.303,1.323-5.262,3.729c0,1.056,0.457,1.949,1.375,2.686c0.877,0.816,2.327,1.225,4.354,1.225
			c2.555,0.039,4.355-0.27,5.41-0.927c0.954-0.655,1.433-2.147,1.433-4.474L306.296,46.96L306.296,46.96z"/>
		<path fill="#FFFFFF" d="M321.24,29.135h6.083v3.279h0.126c2.005-2.444,4.633-3.667,7.884-3.667
			c2.434,0.04,4.555,0.832,6.365,2.376l-4.44,5.376c-1.286-1.036-2.62-1.555-4.005-1.555c-1.557,0-2.893,0.518-4.003,1.552
			c-1.246,1.016-1.889,2.657-1.927,4.926V60.08h-6.083V29.135z"/>
	</g>
</g>
<g id="Layer_4" display="none">
	<g id="cFB0WO.tif" display="inline">
		
			<image overflow="visible" enable-background="new    " width="445" height="633" id="Layer_0_1_" xlink:href="F46D815F392F56F6.png"  transform="matrix(0.1434 0 0 0.1656 31.9531 -11.7227)">
		</image>
	</g>
</g>
<g id="Layer_6" display="none">
	<g id="XMLID_2_" display="inline">
		<g>
			<polygon fill="#DDDDDD" points="58.121,18.547 68.491,38.667 53.75,28.787 53.371,28.417 47.371,22.417 38.75,5.287 			"/>
			<polygon fill="#AAAAAA" points="68.491,38.667 58.991,51.667 38.121,70.287 45.491,59.417 52.281,53.287 			"/>
			<polygon fill="#E2E2E2" points="68.491,38.667 52.281,53.287 42.871,53.287 28.75,42.547 44.75,28.417 53.371,28.417 
				53.75,28.787 			"/>
			<polygon fill="#E8E8E8" points="47.371,22.417 53.371,28.417 44.75,28.417 			"/>
			<polygon fill="#C6C6C6" points="52.281,53.287 45.491,59.417 42.871,53.287 			"/>
			<polygon fill="#FFFFFF" points="38.75,5.287 47.371,22.417 44.75,28.417 28.75,42.547 21.621,26.667 22.69,20.507 			"/>
			<polygon fill="#BFBFBF" points="42.871,53.287 45.491,59.417 38.121,70.287 21.121,57.417 20.75,51.547 28.75,42.547 			"/>
			<polygon fill="#E8E8E8" points="21.621,26.667 28.75,42.547 20.75,51.547 15.991,50.787 9.621,35.787 16.991,26.667 			"/>
			<polygon fill="#E8E8E8" points="22.69,20.507 21.621,26.667 16.991,26.667 21.991,21.167 			"/>
			<polygon fill="#C6C6C6" points="20.75,51.547 21.121,57.417 15.991,50.787 			"/>
		</g>
	</g>
</g>
<g id="Layer_7">
	<g id="g14_1_">
		<g id="g20_1_" transform="translate(19.084,9.1504)">
			<path id="path22_1_" fill="#FFFFFF" d="M11.361,58.983l-1.976-2.57l0.297-1.383h1.284l-0.273-1.416l0.372-1.846l0.296-1.381
				l1.117-1.164c0,0,2.539-1.014,2.243-4.568c0,0,2.173-2.965,1.68-4.545c-0.495-1.58-3.472-1.483-3.472-1.483l-4.927-2.075
				c0,0-0.395-2.074-1.778-2.271c-1.384-0.198-1.779,0.789-2.372,0c-0.593-0.79-1.414-1.979-2.979-2.076
				c-1.567-0.098-3.543-1.383-3.543-1.383s-0.296-1.086-1.976-0.69c0,0-1.086-1.088-0.593-3.262c0,0-0.097-1.185-1.58-0.692
				c0,0-1.185-1.284-1.581-1.284s-0.988-3.755,0.791-5.435c0,0,1.68-1.976,3.558-0.791c0,0-0.099,1.877,0.197,2.767
				s0.889-1.284,0.889-1.284l0.099-2.767c0,0,1.284-0.593,2.372-1.581c1.086-0.988,0.69-2.272,2.173-3.261
				c1.482-0.987,1.779,0,1.779,0l0.099-1.679H4.94l3.359-1.483c0,0-1.582,0.099-2.173-0.791l4.248-2.272V5.032l-0.291-2.668
				L9.089,3.55L8.892,2.364L7.015,2.123H6.323L4.741,2.858L4.643,3.846l-1.779,0.79l-0.89-0.889l0.692-0.889l0.692-0.735L5.2-0.37
				c0,0-12.215,6.851-15.772,18.971c0,0-0.2,3.821-0.297,5.205c-0.1,1.383,1.086,2.668,1.086,2.668h1.087l0.395,0.988l0.889,0.296
				l0.495,0.296l0.296,0.771l0.395,1.404l0.891,0.196l0.493,0.89l0.593,0.099l-0.197-0.791h0.79l0.296,0.692l-0.888,0.691
				l-0.297,0.691l-0.099,1.58l0.099,1.186l0.1,1.088l-0.889,0.494l0.197,1.086l0.099,0.692v1.089l-0.495,0.197l3.557,4.842
				l1.087,0.395l0.692,0.102l1.087,0.395l0.889,1.68c0,0,2.865,6.324,3.261,7.213C5.434,55.622,9.584,59.278,11.361,58.983"/>
		</g>
		<g id="g24_1_" transform="translate(49.0361,35.6699)">
			<path id="path26_1_" fill="#FFFFFF" d="M21.345-2.896c-3.06-3.062-5.63-8.992-5.63-8.992c1.768,1.617,5.533,7.971,5.533,7.971
				l0.593-2.733v-1.779l-1.187-2.173l-0.394,0.296l-0.991-2.173l2.355,1.49c-0.479-0.302-0.991-2.124-1.301-2.669
				c-0.492-0.861-1.036-1.689-1.622-2.488c-3.892-5.304-9.247-9.918-15.32-12.522c-1.039-0.444-2.098-0.761-3.219-1.063
				c-0.881-0.237-1.772-0.436-2.671-0.599c-2.117-0.384-4.269-0.564-6.42-0.564c-8.269,0-15.101,3.624-15.101,3.624
				c5.174,2.479,8.18,0.414,8.18,0.414s1.821,3.794,5.253,2.349c3.434-1.447,8.312-1.683,8.312-1.683
				c1.781,0.494,3.377,0.704,4.761,0.759l-0.402,1.492l-2.173-0.242l-1.383,2.415l-1.483,0.692c0,0,1.877,1.284,1.68,1.976
				c-0.197,0.692-2.566,0.889-2.566,0.889s-0.396,2.469,0.886,2.767c1.286,0.296,3.262-0.692,3.262-0.692s0.495-1.877,1.58-2.272
				c1.09-0.398,3.066-0.694,3.066-0.694l2.865,1.086c0,0,1.283,2.272,1.677,1.877c0.396-0.396-0.395-1.877-0.395-1.877
				s3.756,1.779,4.644,2.075c0.888,0.296,0.988,2.668,0.988,2.668l-3.951-1.186l-0.79,1.779l-4.545-1.68c0,0,1.088-1.58-0.396-1.58
				c-1.483,0-6.719,1.382-7.213,1.58c-0.495,0.198-0.593,2.964-1.286,2.821c-0.69-0.144-3.26,3.997-3.26,3.997
				s0.692,1.679,0.791,3.952c0.098,2.273,4.643,5.73,6.719,4.941c2.075-0.792,5.831-0.1,7.016,0c1.184,0.097,0.197,2.075,1.48,4.544
				c1.287,2.471,0.297,4.248,0.396,6.916c0.099,2.668,0.297,8.398,0.297,8.398h1.58l2.075-1.383l2.074-2.174l1.483-1.978v-1.286
				l1.485-1.086l1.481-1.481v-3.06l0.199-2.57l1.085-3.258l0.89-2.076v-1.481v-3.294L21.345-2.896z"/>
		</g>
	</g>
</g>
</svg>
