<?xml version="1.0" encoding="utf-8"?>
<!-- Generator: Adobe Illustrator 16.0.0, SVG Export Plug-In . SVG Version: 6.00 Build 0)  -->
<!DOCTYPE svg PUBLIC "-//W3C//DTD SVG 1.1//EN" "http://www.w3.org/Graphics/SVG/1.1/DTD/svg11.dtd">
<svg version="1.1" xmlns="http://www.w3.org/2000/svg" xmlns:xlink="http://www.w3.org/1999/xlink" x="0px" y="0px" width="256px"
	 height="283.5px" viewBox="0 12 256 283.5" enable-background="new 0 12 256 283.5" xml:space="preserve">
<g id="Layer_6">
	<g>
		<path fill="#111111" d="M101.53,201.531v-3.869l5.212-0.737l1.543-1.796v-51.22l-1.543-1.336l-5.462-0.553v-3.776h16.053v2.349
			l29.144,48.317v-44.356l-1.541-1.704l-5.129-0.829v-3.776h17.928v3.776l-5.127,0.829l-1.543,1.704v56.978h-5.629l-32.523-53.568
			v47.166l1.543,1.796l5.128,0.737v3.869H101.53z"/>
	</g>
	<path fill="#AAAAAA" d="M128.67,233.92c-36.398,0-66.01-29.612-66.01-66.01c0-36.398,29.612-66.011,66.01-66.011
		c36.398,0,66.011,29.612,66.011,66.011C194.681,204.308,165.068,233.92,128.67,233.92z M128.67,108.899
		c-32.539,0-59.01,26.472-59.01,59.011c0,32.538,26.472,59.01,59.01,59.01c32.539,0,59.011-26.472,59.011-59.01
		C187.681,135.371,161.209,108.899,128.67,108.899z"/>
</g>
<g id="Layer_5">
	<polygon fill="#821C00" points="134.167,89.006 134.167,38 167.598,95.492 	"/>
</g>
<g id="Layer_4">
	<g>
		<path fill="#111111" d="M51.795,175.48H41.751c3.676,42.565,38.042,76.485,80.801,79.462v-10.047
			C85.313,241.961,55.416,212.525,51.795,175.48z"/>
		<path fill="#111111" d="M134.167,244.943v10.039c43.046-2.69,77.727-36.731,81.421-79.502h-10.043
			C201.904,212.731,171.694,242.289,134.167,244.943z"/>
		<path fill="#111111" d="M122.553,90.924V80.877c-43.934,3.058-79.009,38.783-81.036,82.989h10.009
			C53.531,125.178,84.138,93.951,122.553,90.924z"/>
		<path fill="#111111" d="M205.813,163.866h10.01c-2.037-44.414-37.434-80.266-81.656-83.029v10.039
			C172.871,93.614,203.798,124.97,205.813,163.866z"/>
	</g>
</g>
<g id="Layer_7">
	<polygon fill="#111111" points="122.553,245.465 122.553,271.193 102.28,242.195 	"/>
	<polygon fill="#111111" points="206.098,175.48 231.826,175.48 202.827,195.753 	"/>
	<polygon fill="#111111" points="50.995,163.866 25.266,163.866 54.265,143.593 	"/>
</g>
</svg>
