<?xml version="1.0" encoding="utf-8"?>
<!-- Generator: Adobe Illustrator 16.0.0, SVG Export Plug-In . SVG Version: 6.00 Build 0)  -->
<!DOCTYPE svg PUBLIC "-//W3C//DTD SVG 1.1//EN" "http://www.w3.org/Graphics/SVG/1.1/DTD/svg11.dtd">
<svg version="1.1" xmlns="http://www.w3.org/2000/svg" xmlns:xlink="http://www.w3.org/1999/xlink" x="0px" y="0px" width="50px"
	 height="50px" viewBox="0 0 50 50" enable-background="new 0 0 50 50" xml:space="preserve">
<g id="Layer_2">
	<g>
		<path fill="#464646" d="M41,11.025V41.29c0,1.565-1.27,2.835-2.835,2.835H11.834C10.269,44.125,9,42.855,9,41.29V3.834
			C9,2.269,10.269,1,11.834,1h18.978v10.025H41z"/>
		<polygon fill="#777777" points="30.734,1 41,11.102 30.734,11.102 		"/>
	</g>
</g>
<g id="Layer_3">
	<g>
		<path fill="#FFFFFF" d="M11.651,26.736l1.212-0.105c0.058,0.485,0.191,0.885,0.4,1.195c0.21,0.312,0.536,0.562,0.978,0.755
			c0.441,0.192,0.938,0.288,1.49,0.288c0.49,0,0.923-0.072,1.299-0.218s0.654-0.345,0.838-0.601c0.184-0.253,0.274-0.53,0.274-0.83
			c0-0.306-0.087-0.57-0.265-0.799c-0.176-0.229-0.468-0.418-0.874-0.573c-0.261-0.103-0.837-0.259-1.729-0.474
			c-0.892-0.214-1.517-0.416-1.875-0.606c-0.464-0.243-0.81-0.543-1.037-0.904c-0.228-0.36-0.341-0.763-0.341-1.209
			c0-0.491,0.139-0.949,0.417-1.375c0.279-0.427,0.685-0.75,1.219-0.971c0.534-0.22,1.128-0.331,1.782-0.331
			c0.719,0,1.355,0.116,1.905,0.348c0.549,0.232,0.973,0.574,1.268,1.023c0.296,0.451,0.455,0.961,0.478,1.531l-1.232,0.093
			c-0.066-0.613-0.291-1.078-0.672-1.391c-0.382-0.313-0.946-0.47-1.693-0.47c-0.777,0-1.343,0.142-1.699,0.427
			c-0.355,0.285-0.533,0.629-0.533,1.03c0,0.349,0.126,0.636,0.377,0.861c0.248,0.226,0.894,0.457,1.938,0.691
			c1.044,0.237,1.761,0.443,2.149,0.621c0.566,0.261,0.983,0.591,1.252,0.99c0.27,0.4,0.404,0.86,0.404,1.382
			c0,0.516-0.148,1.003-0.444,1.462c-0.295,0.456-0.721,0.811-1.275,1.066c-0.555,0.253-1.178,0.379-1.872,0.379
			c-0.879,0-1.615-0.128-2.209-0.383c-0.594-0.257-1.06-0.642-1.398-1.156C11.846,27.969,11.668,27.386,11.651,26.736z"/>
		<path fill="#FFFFFF" d="M21.177,29.857v-9.712h1.286v3.987h5.047v-3.987h1.287v9.712H27.51V25.28h-5.047v4.577H21.177z"/>
		<path fill="#FFFFFF" d="M30.936,29.857v-9.712H34.6c0.645,0,1.137,0.031,1.477,0.093c0.477,0.079,0.877,0.231,1.199,0.453
			c0.322,0.224,0.582,0.536,0.777,0.938c0.197,0.402,0.297,0.843,0.297,1.325c0,0.825-0.264,1.524-0.789,2.096
			c-0.525,0.573-1.475,0.858-2.85,0.858h-2.49v3.949H30.936z M32.221,24.762h2.51c0.83,0,1.42-0.155,1.77-0.463
			s0.523-0.744,0.523-1.305c0-0.406-0.104-0.754-0.309-1.043c-0.203-0.289-0.475-0.48-0.811-0.573
			c-0.217-0.057-0.615-0.086-1.199-0.086h-2.484V24.762z"/>
	</g>
</g>
</svg>
